<?xml version="1.0" standalone="no"?>
<!DOCTYPE svg PUBLIC "-//W3C//DTD SVG 1.1//EN" "http://www.w3.org/Graphics/SVG/1.1/DTD/svg11.dtd" >
<svg xmlns="http://www.w3.org/2000/svg">
<metadata>Generated by IcoMoon</metadata>
<defs>
<font id="suchen" horiz-adv-x="1024">
<font-face units-per-em="1024" ascent="960" descent="-64" />
<missing-glyph horiz-adv-x="1024" />
<glyph unicode="&#x20;" horiz-adv-x="512" d="" />
<glyph unicode="&#xe900;" glyph-name="sun" d="M512 656c-115.2 0-208-92.8-208-208s92.8-208 208-208 208 92.8 208 208c0 115.2-92.8 208-208 208zM512 272c-97.6 0-176 78.4-176 176s78.4 176 176 176 176-78.4 176-176c0-97.6-78.4-176-176-176zM528 704h-32v160h32v-160zM496 192h32v-160h-32v160zM256 432h-160v32h160v-32zM928 464v-32h-160v32h160zM699.2 612.8l-22.4 22.4 118.4 118.4 22.4-22.4-118.4-118.4zM324.8 283.2l22.4-22.4-118.4-118.4-22.4 22.4 118.4 118.4zM324.8 612.8l-118.4 118.4 22.4 22.4 118.4-118.4-22.4-22.4zM699.2 283.2l118.4-118.4-22.4-22.4-118.4 118.4 22.4 22.4z" />
<glyph unicode="&#xe901;" glyph-name="moon" d="M556.8 683.2c110.4-20.8 195.2-118.4 195.2-235.2 0-132.8-107.2-240-240-240-108.8 0-201.6 72-230.4 171.2 22.4-6.4 46.4-11.2 70.4-11.2 123.2 0 224 100.8 224 224 0 32-6.4 64-19.2 91.2zM512 720c-4.8 0-11.2 0-16-1.6 30.4-33.6 48-78.4 48-126.4 0-105.6-86.4-192-192-192-41.6 0-80 12.8-112 35.2 6.4-144 124.8-260.8 272-260.8 150.4 0 272 121.6 272 272s-121.6 273.6-272 273.6v0z" />
<glyph unicode="&#xe902;" glyph-name="cloud" d="M520 672c108.8 0 203.2-76.8 227.2-182.4l4.8-24 24-1.6c67.2-4.8 120-60.8 120-128 0-70.4-57.6-128-128-128 0 0-1.6 0-1.6 0h-496c-86.4 0-158.4 72-158.4 160s72 160 160 160c3.2 0 4.8 0 8 0h1.6l20.8-1.6 9.6 19.2c41.6 78.4 120 126.4 208 126.4zM520 704c-102.4 0-192-59.2-235.2-144-4.8 0-8 0-12.8 0-105.6 0-192-86.4-192-192s84.8-192 190.4-192v0h494.4c0 0 1.6 0 1.6 0 88 0 160 72 160 160 0 84.8-65.6 153.6-150.4 160-24 118.4-129.6 208-256 208v0z" />
<glyph unicode="&#xe903;" glyph-name="cloud-sun" d="M840 385.6c-22.4 107.2-118.4 188.8-233.6 188.8-35.2 0-68.8-8-97.6-20.8-27.2 51.2-80 86.4-142.4 86.4-88 0-160-72-160-160 0-40 14.4-75.2 38.4-102.4-22.4-28.8-36.8-65.6-36.8-107.2 0-96 76.8-172.8 172.8-174.4v0h448c0 0 1.6 0 1.6 0 80 0 144 65.6 144 145.6 1.6 76.8-59.2 139.2-134.4 144zM368 608c49.6 0 92.8-28.8 113.6-68.8-36.8-22.4-67.2-56-86.4-94.4-3.2 0-8 0-11.2 0-44.8 0-84.8-16-115.2-43.2-17.6 22.4-28.8 49.6-28.8 80 0 68.8 56 126.4 128 126.4zM832 128c0 0-1.6 0-1.6 0h-448c-78.4 0-142.4 64-142.4 142.4s64 142.4 142.4 142.4c3.2 0 4.8 0 6.4 0h1.6l20.8-1.6 9.6 19.2c35.2 70.4 105.6 113.6 184 113.6 97.6 0 182.4-68.8 201.6-163.2l4.8-24 24-1.6c59.2-3.2 105.6-52.8 105.6-112 3.2-64-46.4-115.2-108.8-115.2zM384 672h-32v128h32v-128zM48 496h128v-32h-128v32zM220.8 603.2l-89.6 89.6 22.4 22.4 89.6-89.6-22.4-22.4zM513.6 603.2l-22.4 22.4 89.6 89.6 22.4-22.4-89.6-89.6z" />
<glyph unicode="&#xe904;" glyph-name="cloud-moon" d="M776 449.6c-22.4 108.8-118.4 188.8-233.6 188.8-28.8 0-56-4.8-81.6-14.4-14.4 81.6-86.4 144-172.8 144-6.4 0-12.8 0-19.2-1.6 11.2-17.6 19.2-40 19.2-62.4 0-62.4-49.6-112-112-112-22.4 0-44.8 6.4-62.4 19.2-1.6-6.4-1.6-12.8-1.6-19.2 0-59.2 28.8-112 75.2-144-27.2-30.4-43.2-70.4-43.2-113.6 0-96 76.8-174.4 172.8-174.4v0h448c0 0 1.6 0 1.6 0 80 0 145.6 65.6 145.6 145.6 0 76.8-60.8 139.2-136 144zM147.2 563.2c9.6-1.6 19.2-3.2 28.8-3.2 80 0 144 64 144 144 0 9.6-1.6 19.2-3.2 28.8 59.2-12.8 105.6-60.8 113.6-123.2-43.2-22.4-78.4-59.2-100.8-104-3.2 0-8 0-11.2 0-40 0-78.4-14.4-107.2-36.8-33.6 22.4-56 56-64 94.4zM768 192c0 0-1.6 0-1.6 0h-449.6c-76.8 0-140.8 64-140.8 142.4s64 142.4 142.4 142.4c3.2 0 4.8 0 6.4 0h1.6l20.8-1.6 9.6 19.2c35.2 70.4 105.6 113.6 184 113.6 97.6 0 182.4-68.8 203.2-163.2l4.8-24 24-1.6c59.2-3.2 105.6-52.8 105.6-112 1.6-64-48-115.2-110.4-115.2z" />
<glyph unicode="&#xe905;" glyph-name="drizzle" d="M483.2 208h32v112h-32v-112zM611.2 384h32v-112h-32v112zM355.2 384h32v-112h-32v112zM483.2 160h32v-112h-32v112zM611.2 224h32v-112h-32v112zM355.2 224h32v-112h-32v112zM931.2 432c0-88-72-160-160-160 0 0-1.6 0-1.6 0v0h-78.4v32h76.8c0 0 1.6 0 1.6 0 70.4 0 128 57.6 128 128 0 67.2-52.8 123.2-120 128l-24 1.6-4.8 24c-22.4 105.6-116.8 182.4-225.6 182.4-88 0-166.4-48-206.4-126.4l-9.6-19.2-22.4 1.6h-1.6c-3.2 0-4.8 0-8 0-88 0-160-72-160-160s72-160 158.4-160h32v-32h-33.6c-105.6 0-190.4 86.4-190.4 192s86.4 192 192 192c4.8 0 8 0 12.8 0 43.2 86.4 132.8 144 235.2 144 126.4 0 232-89.6 257.6-208 84.8-6.4 152-75.2 152-160z" />
<glyph unicode="&#xe906;" glyph-name="drizzle-sun" d="M448 336h32v-112h-32v112zM448 64h32v112h-32v-112zM48 592h128v32h-128v-32zM611.2 814.4l-22.4 22.4-89.6-89.6 22.4-22.4 89.6 89.6zM251.2 747.2l-91.2 91.2-22.4-24 89.6-91.2 24 24zM384 912h-32v-112h32v112zM982.4 361.6c0-80-65.6-145.6-145.6-145.6 0 0-4.8 0-4.8 0v8h-48v32h20.8l32-3.2c0 0 1.6-3.2 1.6-3.2 62.4 0 112 51.2 112 113.6 0 59.2-46.4 108.8-105.6 112l-24 1.6-4.8 24c-20.8 94.4-105.6 163.2-201.6 163.2-78.4 0-148.8-43.2-184-113.6l-9.6-19.2-20.8 1.6h-1.6c-1.6 0-4.8 1.6-6.4 1.6-78.4 0-142.4-62.4-142.4-140.8s64-139.2 140.8-140.8l8 3.2h1.6v-32h-16v-8c-96 0-171.2 78.4-171.2 174.4 0 40 16 76.8 38.4 107.2-24 27.2-38.4 64-38.4 104 0 88 72 160 160 160 62.4 0 115.2-35.2 142.4-86.4 30.4 12.8 62.4 20.8 97.6 20.8 115.2 0 211.2-81.6 233.6-188.8 76.8-4.8 136-68.8 136-145.6zM488 659.2c-20.8 41.6-64 70.4-113.6 70.4-70.4 0-128-57.6-128-128 0-30.4 11.2-57.6 28.8-80 30.4 27.2 70.4 43.2 115.2 43.2 3.2 0 8 0 11.2 0 19.2 38.4 49.6 72 86.4 94.4zM704 224h32v112h-32v-112zM576-16h32v128h-32v-128zM576 160h32v112h-32v-112zM704 64h32v112h-32v-112z" />
<glyph unicode="&#xe907;" glyph-name="drizzle-moon" d="M496 112h32v-96h-32v96zM368 64h32v128h-32v-128zM496 176h32v112h-32v-112zM368 240h32v112h-32v-112zM624 64h32v128h-32v-128zM624 240h32v112h-32v-112zM912 385.6c0-80-70.4-145.6-150.4-145.6 0 0-8 0-8 0v0h-49.6v32h62.4c0 0 1.6-1.6 1.6-1.6 62.4 0 112 51.2 112 113.6 0 59.2-46.4 108.8-105.6 113.6l-24 1.6-4.8 24c-19.2 94.4-105.6 163.2-201.6 163.2-78.4 0-148.8-43.2-184-113.6l-9.6-19.2-20.8 1.6h-1.6c-1.6 0-4.8 1.6-6.4 1.6-78.4 0-142.4-62.4-142.4-140.8s64-144 140.8-144v0-32h-16c-96 0-166.4 78.4-166.4 174.4 0 43.2 20.8 83.2 48 113.6-44.8 32-73.6 84.8-73.6 144 0 6.4 1.6 12.8 1.6 19.2 17.6-11.2 40-19.2 62.4-19.2 62.4 0 112 49.6 112 112 0 22.4-6.4 44.8-19.2 62.4 6.4 1.6 14.4 1.6 20.8 1.6 86.4 0 156.8-62.4 172.8-144 25.6 9.6 52.8 14.4 81.6 14.4 115.2 0 211.2-81.6 233.6-188.8 75.2-4.8 134.4-67.2 134.4-144zM432 691.2c-8 60.8-54.4 110.4-113.6 121.6 1.6-9.6 1.6-19.2 1.6-28.8 0-80-64-144-144-144-9.6 0-19.2 1.6-28.8 3.2 8-38.4 32-72 64-92.8 28.8 24 67.2 36.8 107.2 36.8 3.2 0 8 0 11.2 0 24 44.8 59.2 80 102.4 104z" />
<glyph unicode="&#xe908;" glyph-name="drizzle-alt" d="M480 201.6h32v64h-32v-64zM608 331.2h32v-65.6h-32v65.6zM352 331.2h32v-65.6h-32v65.6zM928 427.2c0-89.6-72-161.6-160-161.6 0 0-1.6 0-1.6 0v0h-78.4v32h78.4c0 0 1.6 0 1.6 0 70.4 0 128 57.6 128 129.6 0 68.8-52.8 124.8-120 129.6l-24 1.6-4.8 24c-22.4 107.2-118.4 185.6-227.2 185.6-88 0-166.4-49.6-206.4-128l-9.6-19.2-20.8 1.6h-1.6c-3.2 0-4.8 0-8 0-88 0-160-72-160-161.6 0-88 72-161.6 158.4-161.6h32v-32h-33.6c-105.6 0-190.4 86.4-190.4 193.6s86.4 193.6 192 193.6c4.8 0 8 0 12.8 0 43.2 86.4 132.8 145.6 235.2 145.6 126.4 0 232-89.6 257.6-211.2 84.8-4.8 150.4-75.2 150.4-161.6zM648 184c0-12.8-11.2-24-24-24s-24 11.2-24 24c0 12.8 11.2 24 24 24s24-9.6 24-24zM520 120c0-12.8-11.2-24-24-24s-24 11.2-24 24c0 12.8 11.2 24 24 24s24-11.2 24-24zM392 185.6c0-12.8-11.2-24-24-24s-24 11.2-24 24c0 12.8 11.2 24 24 24s24-11.2 24-24z" />
<glyph unicode="&#xe909;" glyph-name="drizzle-alt-sun" d="M480 176h-32v64h32v-64zM243.2 700.8l-89.6 89.6-24-22.4 89.6-89.6 24 22.4zM48 544h128v32h-128v-32zM603.2 768l-22.4 22.4-89.6-89.6 22.4-22.4 89.6 89.6zM384 880h-32v-128h32v128zM464 120c-12.8 0-24-11.2-24-24s11.2-24 24-24 24 11.2 24 24c0 12.8-11.2 24-24 24zM736 240h-32v-64h32v64zM976 318.4c0-80-64-144-144-144 0 0 0 0 0 0v1.6h-48v32h44.8c0 0 1.6 0 1.6 0 62.4 0 112 51.2 112 112 0 59.2-46.4 108.8-105.6 112h-24l-4.8 24c-20.8 94.4-105.6 161.6-201.6 161.6-78.4 0-148.8-43.2-184-112l-9.6-19.2-20.8 1.6h-1.6c-1.6 0-4.8 0-6.4 0-78.4 0-142.4-62.4-142.4-140.8 0-76.8 64-140.8 140.8-140.8h17.6v-32h-16v-1.6c-96 0-174.4 76.8-174.4 172.8 0 40 12.8 76.8 35.2 105.6-24 27.2-38.4 64-38.4 102.4 0 88 72 158.4 160 158.4 62.4 0 115.2-35.2 142.4-86.4 30.4 12.8 62.4 20.8 97.6 20.8 115.2 0 211.2-80 233.6-187.2 75.2-1.6 136-64 136-140.8zM480 614.4c-20.8 41.6-64 68.8-113.6 68.8-70.4 0-128-57.6-128-126.4 0-30.4 11.2-57.6 28.8-78.4 30.4 27.2 70.4 43.2 115.2 43.2 3.2 0 8 0 11.2 0 19.2 36.8 49.6 68.8 86.4 92.8zM720 118.4c-12.8 0-24-11.2-24-24s11.2-24 24-24 24 11.2 24 24-11.2 24-24 24zM592 56c-12.8 0-24-11.2-24-24s11.2-24 24-24 24 11.2 24 24-11.2 24-24 24zM608 176h-32v-64h32v64z" />
<glyph unicode="&#xe90a;" glyph-name="drizzle-alt-moon" d="M792 516.8c-22.4 107.2-118.4 187.2-233.6 187.2-28.8 0-56-4.8-81.6-14.4-16 81.6-86.4 142.4-172.8 142.4-6.4 0-12.8 0-19.2-1.6 11.2-17.6 19.2-38.4 19.2-62.4 0-60.8-49.6-110.4-112-110.4-22.4 0-44.8 6.4-62.4 19.2-1.6-6.4-1.6-12.8-1.6-19.2 0-59.2 28.8-110.4 75.2-142.4-27.2-30.4-43.2-68.8-43.2-112 0-94.4 76.8-171.2 172.8-172.8v0h19.2v32h-19.2c-78.4 0-140.8 64-140.8 140.8s64 140.8 142.4 140.8c3.2 0 4.8 0 6.4 0h1.6l20.8-1.6 9.6 19.2c35.2 68.8 105.6 112 184 112 97.6 0 182.4-68.8 201.6-161.6l4.8-24 24-1.6c59.2-3.2 105.6-52.8 105.6-112 0-60.8-49.6-112-112-112 0 0-1.6 0-1.6 0h-43.2v-32h44.8c0 0 1.6 0 1.6 0 80 0 145.6 64 145.6 144 0 75.2-60.8 137.6-136 142.4zM345.6 574.4c-3.2 0-8 0-11.2 0-40 0-78.4-14.4-107.2-36.8-32 20.8-56 52.8-64 91.2 9.6-1.6 19.2-3.2 28.8-3.2 80 0 144 64 144 142.4 0 9.6-1.6 19.2-3.2 28.8 59.2-11.2 105.6-60.8 113.6-121.6-43.2-22.4-78.4-57.6-100.8-100.8zM528 230.4h32v-64h-32v64zM656 294.4h32v-64h-32v64zM400 294.4h32v-64h-32v64zM696 150.4c0-12.8-11.2-24-24-24s-24 11.2-24 24 11.2 24 24 24 24-11.2 24-24zM568 88c0-12.8-11.2-24-24-24s-24 11.2-24 24c0 12.8 11.2 24 24 24s24-11.2 24-24zM440 150.4c0-12.8-11.2-24-24-24s-24 11.2-24 24c0 12.8 11.2 24 24 24s24-9.6 24-24z" />
<glyph unicode="&#xe90b;" glyph-name="rain" d="M793.6 624c-25.6 118.4-131.2 208-257.6 208-102.4 0-192-59.2-235.2-144-4.8 0-8 0-12.8 0-105.6 0-192-86.4-192-192s84.8-192 190.4-192v0h33.6v32h-32c-88 0-160 72-160 160s72 160 160 160c3.2 0 4.8 0 8 0h1.6l20.8-1.6 9.6 19.2c41.6 78.4 120 126.4 208 126.4 108.8 0 204.8-76.8 227.2-182.4l4.8-24 24-1.6c67.2-4.8 120-60.8 120-128 0-70.4-57.6-128-128-128 0 0-1.6 0-1.6 0h-78.4v-32h78.4c0 0 1.6 0 1.6 0 88 0 160 72 160 160 0 84.8-65.6 153.6-150.4 160zM496 384h32v-320h-32v320zM624 448h32v-320h-32v320zM368 448h32v-320h-32v320z" />
<glyph unicode="&#xe90c;" glyph-name="rain-sun" d="M212.8 724.8l-91.2 91.2 22.4 22.4 89.6-91.2-20.8-22.4zM368 928h-32v-128h32v128zM432 32h32v336h-32v-336zM595.2 816l-22.4 22.4-89.6-89.6 22.4-22.4 89.6 89.6zM32 592h128v32h-128v-32zM966.4 361.6c0-80-65.6-145.6-145.6-145.6 0 0-4.8 0-4.8 0v8h-48v32h20.8l32-3.2c0 0 1.6-3.2 1.6-3.2 62.4 0 112 51.2 112 113.6 0 59.2-46.4 108.8-105.6 112l-24 1.6-4.8 24c-20.8 94.4-105.6 163.2-201.6 163.2-78.4 0-148.8-43.2-184-113.6l-9.6-19.2-20.8 1.6h-1.6c-1.6 0-4.8 1.6-6.4 1.6-78.4 0-142.4-62.4-142.4-140.8s64-139.2 140.8-140.8l8 3.2h1.6v-32h-16v-6.4c-96 0-171.2 78.4-171.2 174.4 0 40 16 76.8 38.4 107.2-24 27.2-38.4 64-38.4 104 0 88 72 160 160 160 62.4 0 115.2-35.2 142.4-86.4 30.4 12.8 62.4 20.8 97.6 20.8 115.2 0 211.2-81.6 233.6-188.8 76.8-6.4 136-70.4 136-147.2zM472 659.2c-20.8 41.6-64 70.4-113.6 70.4-70.4 0-128-57.6-128-128 0-30.4 11.2-57.6 28.8-80 30.4 27.2 70.4 43.2 115.2 43.2 3.2 0 8 0 11.2 0 19.2 38.4 49.6 72 86.4 94.4zM560-32h32v336h-32v-336zM688 168v-136h32v336h-32v-200z" />
<glyph unicode="&#xe90d;" glyph-name="rain-moon" d="M480 336h32v-320h-32v320zM608 80h32v320h-32v-320zM352 80h32v320h-32v-320zM896 385.6c0-80-70.4-145.6-150.4-145.6 0 0-9.6 0-9.6 0v16h-48v32h30.4l32-8c0 0 1.6-6.4 1.6-6.4 62.4 0 112 49.6 112 112 0 59.2-46.4 108.8-105.6 112l-24 1.6-4.8 24c-19.2 94.4-105.6 163.2-201.6 163.2-78.4 0-148.8-43.2-184-113.6l-9.6-19.2-20.8 1.6h-1.6c-1.6 0-4.8 1.6-6.4 1.6-78.4 0-142.4-62.4-142.4-140.8s65.6-136 142.4-136v-40h-17.6c-96 0-166.4 78.4-166.4 174.4 0 43.2 20.8 83.2 48 113.6-44.8 32-73.6 84.8-73.6 144 0 6.4 1.6 12.8 1.6 19.2 17.6-11.2 40-19.2 62.4-19.2 62.4 0 112 49.6 112 112 0 22.4-6.4 44.8-19.2 62.4 6.4 1.6 12.8 1.6 20.8 1.6 86.4 0 156.8-62.4 172.8-144 25.6 9.6 52.8 14.4 81.6 14.4 115.2 0 211.2-81.6 233.6-188.8 75.2-4.8 134.4-67.2 134.4-144zM416 691.2c-8 60.8-54.4 110.4-113.6 121.6 1.6-9.6 1.6-19.2 1.6-28.8 0-80-64-144-144-144-9.6 0-19.2 1.6-28.8 3.2 8-38.4 32-72 64-92.8 28.8 24 67.2 36.8 107.2 36.8 3.2 0 8 0 11.2 0 22.4 44.8 59.2 80 102.4 104z" />
<glyph unicode="&#xe90e;" glyph-name="rain-alt" d="M600 217.6l-110.4 155.2-25.6-16 110.4-155.2 17.6-25.6 56-78.4 25.6 17.6-56 78.4-17.6 24zM744 195.2l57.6-81.6-25.6-17.6-57.6 81.6-16 22.4-110.4 155.2 25.6 17.6 126.4-177.6zM491.2 192l54.4-76.8-25.6-19.2-54.4 76.8-19.2 27.2-110.4 155.2 25.6 17.6 110.4-155.2 19.2-25.6zM928 435.2c0-88-72-158.4-160-158.4 0 0-1.6 0-1.6 0v0h-14.4v32h14.4c0 0 1.6 0 1.6 0 70.4 0 128 57.6 128 126.4 0 67.2-52.8 121.6-120 126.4l-24 1.6-4.8 24c-22.4 104-118.4 180.8-227.2 180.8-88 0-166.4-48-206.4-126.4l-9.6-17.6-20.8 1.6h-1.6c-3.2 0-4.8 0-8 0-88 0-160-70.4-160-158.4 0-86.4 72-158.4 158.4-158.4h32v-32h-33.6c-105.6 0-190.4 84.8-190.4 190.4s86.4 190.4 192 190.4c4.8 0 8 0 12.8 0 43.2 84.8 132.8 144 235.2 144 126.4 0 232-88 257.6-206.4 84.8-6.4 150.4-75.2 150.4-160z" />
<glyph unicode="&#xe90f;" glyph-name="rain-alt-sun" d="M32 560h128v32h-128v-32zM368 880h-32v-112h32v112zM233.6 716.8l-89.6 89.6-22.4-22.4 89.6-89.6 22.4 22.4zM590.4 784l-22.4 22.4-89.6-89.6 22.4-22.4 89.6 89.6zM825.6 476.8c-22.4 107.2-118.4 187.2-232 187.2-35.2 0-67.2-8-97.6-20.8-27.2 51.2-80 86.4-140.8 86.4-88 0-158.4-72-158.4-160 0-38.4 14.4-75.2 38.4-102.4-22.4-28.8-36.8-65.6-36.8-105.6 0-96 75.2-172.8 171.2-172.8v3.2h16v32h-6.4l-8-1.6c-76.8 0-139.2 62.4-139.2 140.8s62.4 140.8 140.8 140.8c1.6 0 4.8 0 6.4 0h1.6l20.8-1.6 9.6 19.2c35.2 70.4 105.6 113.6 182.4 113.6 96 0 180.8-68.8 200-163.2l4.8-24 24-1.6c59.2-3.2 105.6-52.8 105.6-112 0-62.4-49.6-112-112-112 0 0-1.6 1.6-1.6 1.6v1.6h-14.4v-32h16v-3.2c0 0 0 0 1.6 0 80 0 142.4 64 142.4 144 0 75.2-60.8 137.6-134.4 142.4zM382.4 534.4c-3.2 0-8 0-11.2 0-43.2 0-83.2-16-113.6-43.2-17.6 22.4-27.2 49.6-27.2 78.4 0 70.4 57.6 128 126.4 128 49.6 0 91.2-28.8 112-68.8-36.8-22.4-67.2-56-86.4-94.4zM793.6 131.2l-108.8 156.8-25.6-17.6 108.8-158.4 16-22.4 57.6-81.6 25.6 17.6-56 81.6-17.6 24zM667.2 131.2l-110.4 156.8-25.6-17.6 126.4-184 54.4-78.4 25.6 17.6-54.4 78.4-16 27.2zM539.2 131.2l-108.8 156.8-25.6-17.6 108.8-156.8 19.2-27.2 54.4-76.8 25.6 17.6-54.4 76.8-19.2 27.2z" />
<glyph unicode="&#xe910;" glyph-name="rain-alt-moon" d="M507.2 142.4l54.4-76.8-25.6-17.6-54.4 76.8-19.2 27.2-110.4 156.8 25.6 17.6 129.6-184zM616 169.6l-110.4 156.8-25.6-17.6 110.4-156.8 17.6-25.6 56-78.4 25.6 17.6-56 78.4-17.6 25.6zM744 169.6l-110.4 156.8-25.6-17.6 110.4-156.8 16-22.4 57.6-81.6 25.6 17.6-57.6 81.6-16 22.4zM910.4 372.8c0-80-70.4-144-150.4-144 0 0-8 0-8 0v-4.8h-16v32h28.8v1.6c0 0 1.6 0 1.6 0 62.4 0 112 51.2 112 113.6 0 59.2-46.4 108.8-105.6 112l-24 1.6-4.8 24c-19.2 94.4-104 163.2-201.6 163.2-78.4 0-148.8-43.2-184-112l-9.6-19.2-20.8 1.6h-1.6c-1.6 0-4.8 0-6.4 0-80 0-144-62.4-144-140.8 0-76.8 64-144 140.8-144l8-1.6h-4.8v-32h-16v4.8c-96 0-166.4 78.4-166.4 172.8 0 43.2 20.8 83.2 46.4 113.6-44.8 32-73.6 83.2-73.6 142.4 0 6.4 1.6 12.8 1.6 19.2 17.6-11.2 40-19.2 62.4-19.2 62.4 0 112 49.6 112 112 0 22.4-6.4 44.8-19.2 62.4 8 0 14.4 0 20.8 0 86.4 0 156.8-60.8 172.8-142.4 25.6 9.6 52.8 14.4 81.6 14.4 115.2 0 211.2-80 233.6-187.2 75.2-4.8 134.4-67.2 134.4-144zM430.4 675.2c-8 60.8-54.4 108.8-113.6 121.6 1.6-9.6 3.2-19.2 3.2-28.8 0-78.4-64-142.4-144-142.4-9.6 0-19.2 1.6-28.8 3.2 8-38.4 32-72 64-91.2 28.8 22.4 67.2 36.8 107.2 36.8 3.2 0 8 0 11.2 0 22.4 43.2 57.6 78.4 100.8 100.8z" />
<glyph unicode="&#xe911;" glyph-name="lightning" d="M793.6 560c-25.6 118.4-131.2 208-257.6 208-102.4 0-192-59.2-235.2-144-4.8 0-8 0-12.8 0-105.6 0-192-86.4-192-192s84.8-192 190.4-192v0h97.6v32h-96c-88 0-160 72-160 160s72 160 160 160c3.2 0 4.8 0 8 0h1.6l20.8-1.6 9.6 19.2c41.6 78.4 120 126.4 208 126.4 108.8 0 204.8-76.8 227.2-182.4l4.8-24 24-1.6c67.2-4.8 120-60.8 120-128 0-70.4-57.6-128-128-128 0 0-1.6 0-1.6 0h-78.4v-32h78.4c0 0 1.6 0 1.6 0 88 0 160 72 160 160 0 84.8-65.6 153.6-150.4 160zM540.8 240h67.2l-102.4 147.2-25.6-19.2 67.2-96h-67.2l20.8-28.8 17.6-25.6 96-137.6 25.6 17.6-96 137.6-3.2 4.8z" />
<glyph unicode="&#xe912;" glyph-name="lightning-sun" d="M48 592h128v-32h-128v32zM243.2 723.2l-91.2 91.2-22.4-22.4 89.6-91.2 24 22.4zM384 896h-32v-128h32v128zM603.2 790.4l-22.4 22.4-89.6-89.6 22.4-22.4 89.6 89.6zM588.8 192h67.2l-102.4 147.2-25.6-19.2 67.2-96h-67.2l20.8-28.8 17.6-25.6 96-137.6 25.6 17.6-96 137.6-3.2 4.8zM976 337.6c0-80-64-145.6-144-145.6 0 0 0 0 0 0v0h-96v32h92.8c0 0 1.6 0 1.6 0 62.4 0 112 51.2 112 113.6 0 59.2-46.4 108.8-105.6 112l-24 1.6-4.8 24c-19.2 96-105.6 164.8-201.6 164.8-78.4 0-148.8-43.2-184-113.6l-9.6-19.2-20.8 1.6h-1.6c-1.6 0-4.8 0-6.4 0-78.4 0-142.4-64-142.4-142.4s64-142.4 140.8-142.4h65.6v-32h-64c-96 0-174.4 78.4-174.4 174.4 0 40 12.8 76.8 35.2 107.2-24 27.2-38.4 64-38.4 104 0 88 72 160 160 160 62.4 0 115.2-35.2 142.4-86.4 30.4 12.8 62.4 20.8 97.6 20.8 113.6 0 209.6-81.6 233.6-190.4 75.2-3.2 136-67.2 136-144zM480 635.2c-20.8 41.6-64 70.4-113.6 70.4-70.4 0-128-57.6-128-128 0-30.4 11.2-57.6 28.8-80 30.4 27.2 70.4 44.8 115.2 44.8 3.2 0 8 0 11.2 0 19.2 36.8 49.6 70.4 86.4 92.8z" />
<glyph unicode="&#xe913;" glyph-name="lightning-moon" d="M776 529.6c-22.4 108.8-118.4 188.8-233.6 188.8-28.8 0-56-4.8-81.6-14.4-14.4 81.6-86.4 144-172.8 144-6.4 0-12.8 0-19.2-1.6 11.2-17.6 19.2-38.4 19.2-62.4 0-62.4-49.6-112-112-112-22.4 0-44.8 6.4-62.4 19.2-1.6-6.4-1.6-12.8-1.6-19.2 0-59.2 28.8-112 75.2-144-27.2-30.4-43.2-70.4-43.2-113.6 0-96 76.8-172.8 172.8-174.4v0h67.2v32h-67.2c-76.8 0-140.8 64-140.8 142.4s64 142.4 142.4 142.4c3.2 0 4.8 0 6.4 0h1.6l20.8-1.6 9.6 19.2c35.2 70.4 105.6 113.6 184 113.6 97.6 0 182.4-68.8 201.6-163.2l4.8-24 24-1.6c59.2-3.2 105.6-52.8 105.6-112 0-62.4-49.6-112-112-113.6 0 0-1.6 0-1.6 0h-91.2v-32h92.8c0 0 1.6 0 1.6 0 80 0 145.6 65.6 145.6 145.6 0 75.2-60.8 137.6-136 142.4zM329.6 587.2c-3.2 0-8 0-11.2 0-40 0-78.4-14.4-107.2-36.8-32 20.8-56 54.4-64 92.8 9.6-1.6 19.2-3.2 28.8-3.2 80 0 144 64 144 144 0 9.6-1.6 19.2-3.2 28.8 59.2-12.8 105.6-60.8 113.6-121.6-43.2-24-78.4-59.2-100.8-104zM528 235.2l96-137.6-25.6-17.6-96 137.6-17.6 25.6-20.8 28.8h67.2l-67.2 96 25.6 17.6 102.4-147.2h-67.2l3.2-3.2z" />
<glyph unicode="&#xe914;" glyph-name="lightning-rain" d="M761.6 592c-25.6 118.4-131.2 208-257.6 208-102.4 0-192-59.2-235.2-144-4.8 0-8 0-12.8 0-105.6 0-192-86.4-192-192s84.8-192 190.4-192v0h17.6v32h-16c-88 0-160 72-160 160s72 160 160 160c3.2 0 4.8 0 8 0h1.6l20.8-1.6 9.6 19.2c41.6 78.4 120 126.4 208 126.4 108.8 0 204.8-76.8 227.2-182.4l4.8-24 24-1.6c67.2-4.8 120-60.8 120-128 0-70.4-57.6-128-128-128 0 0-1.6 0-1.6 0h-14.4v-32h14.4c0 0 1.6 0 1.6 0 88 0 160 72 160 160 0 84.8-65.6 153.6-150.4 160zM313.6 371.2l102.4-147.2-25.6-17.6-102.4 145.6 25.6 19.2zM601.6 371.2l102.4-147.2-25.6-17.6-102.4 145.6 25.6 19.2zM528 219.2l73.6-105.6-25.6-17.6-73.6 105.6-17.6 25.6-20.8 28.8h67.2l-67.2 96 25.6 17.6 102.4-147.2h-67.2l3.2-3.2z" />
<glyph unicode="&#xe915;" glyph-name="lightning-rain-sun" d="M32 608h128v-32h-128v32zM376 280l102.4-147.2 25.6 17.6-102.4 147.2-25.6-17.6zM235.2 731.2l-91.2 91.2-22.4-22.4 89.6-91.2 24 22.4zM368 896h-32v-112h32v112zM595.2 798.4l-22.4 22.4-89.6-89.6 22.4-22.4 89.6 89.6zM612.8 160h67.2l-102.4 142.4-25.6-16 67.2-94.4h-67.2l20.8-33.6 17.6-27.2 73.6-107.2 25.6 17.6-73.6 108.8-3.2 9.6zM966.4 345.6c0-80-65.6-145.6-145.6-145.6 0 0-4.8 0-4.8 0v8h-16v24h17.6c0 0 4.8 0 6.4 0 62.4 0 112 51.2 112 113.6 0 59.2-46.4 108.8-105.6 112l-24 1.6-4.8 24c-20.8 94.4-105.6 163.2-203.2 163.2-78.4 0-148.8-43.2-184-113.6l-9.6-19.2-20.8 1.6h-3.2c-1.6 0-4.8 0-8 0-78.4 0-142.4-64-142.4-142.4s60.8-142.4 139.2-142.4h-1.6v-30.4c-96 0-171.2 78.4-171.2 174.4 0 40 16 76.8 38.4 107.2-24 27.2-38.4 64-38.4 104 0 88 72 160 160 160 62.4 0 115.2-35.2 142.4-86.4 30.4 12.8 62.4 20.8 97.6 20.8 115.2 0 211.2-81.6 233.6-188.8 76.8-4.8 136-68.8 136-145.6zM472 643.2c-20.8 41.6-64 70.4-113.6 70.4-70.4 0-128-57.6-128-128 0-30.4 11.2-57.6 28.8-80 30.4 27.2 70.4 44.8 115.2 44.8 3.2 0 8 0 11.2 0 19.2 36.8 49.6 70.4 86.4 92.8zM664 280l102.4-147.2 25.6 17.6-102.4 147.2-25.6-17.6z" />
<glyph unicode="&#xe916;" glyph-name="lightning-rain-moon" d="M776 497.6c-22.4 108.8-118.4 188.8-233.6 188.8-28.8 0-56-4.8-81.6-14.4-14.4 81.6-86.4 144-172.8 144-6.4 0-12.8 0-19.2-1.6 11.2-17.6 19.2-40 19.2-62.4 0-62.4-49.6-112-112-112-22.4 0-44.8 6.4-62.4 19.2-1.6-6.4-1.6-12.8-1.6-19.2 0-59.2 28.8-112 75.2-144-27.2-30.4-43.2-70.4-43.2-113.6 0-96 76.8-172.8 172.8-174.4v0h3.2v32h-3.2c-76.8 0-140.8 64-140.8 142.4s64 142.4 142.4 142.4c3.2 0 4.8 0 6.4 0h1.6l20.8-1.6 9.6 19.2c35.2 70.4 105.6 113.6 184 113.6 97.6 0 182.4-68.8 201.6-163.2l4.8-24 24-1.6c59.2-3.2 105.6-52.8 105.6-112 0-62.4-49.6-112-112-113.6 0 0-1.6 0-1.6 0l-11.2-1.6v-32h12.8c0 0 1.6 0 1.6 0 80 0 145.6 65.6 145.6 145.6 0 76.8-60.8 139.2-136 144zM329.6 555.2c-3.2 0-8 0-11.2 0-40 0-78.4-14.4-107.2-36.8-32 20.8-56 54.4-64 92.8 9.6-1.6 19.2-3.2 28.8-3.2 80 0 144 64 144 144 0 9.6-1.6 19.2-3.2 28.8 59.2-12.8 105.6-60.8 113.6-121.6-43.2-24-78.4-59.2-100.8-104zM345.6 307.2l102.4-147.2-25.6-17.6-102.4 145.6 25.6 19.2zM633.6 307.2l102.4-147.2-25.6-17.6-102.4 145.6 25.6 19.2zM560 155.2l73.6-105.6-25.6-17.6-73.6 105.6-17.6 25.6-20.8 28.8h67.2l-67.2 96 25.6 17.6 102.4-145.6h-67.2l3.2-4.8z" />
<glyph unicode="&#xe917;" glyph-name="hail" d="M793.6 624c-25.6 118.4-131.2 208-257.6 208-102.4 0-192-59.2-235.2-144-4.8 0-8 0-12.8 0-105.6 0-192-86.4-192-192s84.8-192 190.4-192v0h33.6v32h-32c-88 0-160 72-160 160s72 160 160 160c3.2 0 4.8 0 8 0h1.6l20.8-1.6 9.6 19.2c41.6 78.4 120 126.4 208 126.4 108.8 0 204.8-76.8 227.2-182.4l4.8-24 24-1.6c67.2-4.8 120-60.8 120-128 0-70.4-57.6-128-128-128 0 0-1.6 0-1.6 0h-78.4v-32h78.4c0 0 1.6 0 1.6 0 88 0 160 72 160 160 0 84.8-65.6 153.6-150.4 160zM408 184c0-12.8-11.2-24-24-24s-24 11.2-24 24 11.2 24 24 24 24-11.2 24-24zM536 88c0-12.8-11.2-24-24-24s-24 11.2-24 24 11.2 24 24 24 24-11.2 24-24zM664 152c0-12.8-11.2-24-24-24s-24 11.2-24 24 11.2 24 24 24 24-11.2 24-24zM400 256h-32v192h32v-192zM528 160h-32v224h32v-224zM656 224h-32v224h32v-224z" />
<glyph unicode="&#xe918;" glyph-name="hail-sun" d="M32 640h128v-32h-128v32zM222.4 763.2l-91.2 91.2-22.4-22.4 89.6-91.2 24 22.4zM443.2 120c-12.8 0-24-11.2-24-24s11.2-24 24-24 24 11.2 24 24c0 14.4-11.2 24-24 24zM368 928h-32v-112h32v112zM582.4 830.4l-22.4 24-89.6-89.6 22.4-22.4 89.6 88zM464 368h-32v-192h32v192zM720 140.8v227.2h-32v-224h32v-3.2zM571.2 24c-12.8 0-24-11.2-24-24s11.2-24 24-24 24 11.2 24 24-11.2 24-24 24zM953.6 377.6c0-80-67.2-145.6-147.2-145.6 0 0 9.6 0-6.4 0v8h-32v32h8l32-3.2c0 0 1.6-3.2 1.6-3.2 62.4 0 112 51.2 112 113.6 0 59.2-46.4 108.8-105.6 112l-24 1.6-4.8 24c-20.8 94.4-105.6 163.2-201.6 163.2-78.4 0-148.8-43.2-184-113.6l-9.6-19.2-20.8 1.6h-1.6c-1.6 0-4.8 1.6-6.4 1.6-78.4 0-142.4-62.4-142.4-140.8s64-139.2 140.8-140.8l6.4 3.2h16v-32h-32v-8c-80 0-169.6 78.4-169.6 174.4 0 40 17.6 76.8 40 107.2-24 27.2-38.4 64-38.4 104 0 88 72 160 160 160 62.4 0 115.2-35.2 142.4-86.4 30.4 12.8 62.4 20.8 97.6 20.8 115.2 0 211.2-81.6 233.6-188.8 76.8-4.8 136-68.8 136-145.6zM459.2 675.2c-20.8 41.6-64 70.4-113.6 70.4-70.4 0-128-57.6-128-128 0-30.4 11.2-57.6 28.8-80 30.4 27.2 70.4 43.2 115.2 43.2 3.2 0 8 0 11.2 0 19.2 38.4 49.6 72 86.4 94.4zM699.2 88c-12.8 0-24-11.2-24-24s11.2-24 24-24 24 11.2 24 24c0 14.4-11.2 24-24 24zM592 304h-32v-224h32v224z" />
<glyph unicode="&#xe919;" glyph-name="hail-moon" d="M776 561.6c-22.4 108.8-118.4 188.8-233.6 188.8-28.8 0-56-4.8-81.6-14.4-16 81.6-86.4 144-172.8 144-6.4 0-12.8 0-19.2-1.6 11.2-17.6 19.2-38.4 19.2-62.4 0-62.4-49.6-112-112-112-22.4 0-44.8 6.4-62.4 19.2-1.6-6.4-1.6-12.8-1.6-19.2 0-59.2 28.8-112 75.2-144-27.2-30.4-43.2-70.4-43.2-113.6 0-96 76.8-172.8 172.8-174.4v0h19.2v32h-19.2c-76.8 0-140.8 64-140.8 142.4s64 142.4 142.4 142.4c3.2 0 4.8 0 6.4 0h1.6l20.8-1.6 9.6 19.2c35.2 70.4 105.6 113.6 184 113.6 97.6 0 182.4-68.8 201.6-163.2l4.8-24 24-1.6c59.2-3.2 105.6-52.8 105.6-112 0-62.4-49.6-112-112-113.6 0 0-1.6 0-1.6 0h-43.2v-32h44.8c0 0 1.6 0 1.6 0 80 0 145.6 65.6 145.6 145.6 0 75.2-60.8 137.6-136 142.4zM329.6 619.2c-3.2 0-8 0-11.2 0-40 0-78.4-14.4-107.2-36.8-32 20.8-56 54.4-64 92.8 9.6-1.6 19.2-3.2 28.8-3.2 80 0 144 64 144 144 0 9.6-1.6 19.2-3.2 28.8 59.2-12.8 105.6-60.8 113.6-121.6-43.2-24-78.4-59.2-100.8-104zM424 136c0-12.8-11.2-24-24-24s-24 11.2-24 24 11.2 24 24 24 24-11.2 24-24zM552 40c0-12.8-11.2-24-24-24s-24 11.2-24 24 11.2 24 24 24 24-11.2 24-24zM680 104c0-12.8-11.2-24-24-24s-24 11.2-24 24 11.2 24 24 24 24-11.2 24-24zM416 208h-32v192h32v-192zM544 112h-32v224h32v-224zM672 176h-32v224h32v-224z" />
<glyph unicode="&#xe91a;" glyph-name="snow" d="M777.6 560c-25.6 118.4-131.2 208-257.6 208-102.4 0-192-59.2-235.2-144-4.8 0-8 0-12.8 0-105.6 0-192-86.4-192-192s84.8-192 190.4-192v0h33.6v32h-32c-88 0-160 72-160 160s72 160 160 160c3.2 0 4.8 0 8 0h1.6l20.8-1.6 9.6 19.2c41.6 78.4 120 126.4 208 126.4 108.8 0 204.8-76.8 227.2-182.4l4.8-24 24-1.6c67.2-4.8 120-60.8 120-128 0-70.4-57.6-128-128-128 0 0-1.6 0-1.6 0h-78.4v-32h78.4c0 0 1.6 0 1.6 0 88 0 160 72 160 160 0 84.8-65.6 153.6-150.4 160zM400 342.4c0-12.8-11.2-24-24-24s-24 11.2-24 24 11.2 24 24 24 24-9.6 24-24zM464 248c0-12.8-11.2-24-24-24s-24 11.2-24 24 11.2 24 24 24 24-11.2 24-24zM592 248c0-12.8-11.2-24-24-24s-24 11.2-24 24 11.2 24 24 24 24-11.2 24-24zM528 342.4c0-12.8-11.2-24-24-24s-24 11.2-24 24 11.2 24 24 24 24-9.6 24-24zM656 342.4c0-12.8-11.2-24-24-24s-24 11.2-24 24 11.2 24 24 24 24-9.6 24-24zM400 152c0-12.8-11.2-24-24-24s-24 11.2-24 24 11.2 24 24 24 24-11.2 24-24zM528 152c0-12.8-11.2-24-24-24s-24 11.2-24 24 11.2 24 24 24 24-11.2 24-24zM656 152c0-12.8-11.2-24-24-24s-24 11.2-24 24 11.2 24 24 24 24-11.2 24-24z" />
<glyph unicode="&#xe91b;" glyph-name="snow-sun" d="M536 176c0-12.8-11.2-24-24-24s-24 11.2-24 24c0 12.8 11.2 24 24 24s24-9.6 24-24zM448 296c-12.8 0-24-11.2-24-24s11.2-24 24-24 24 11.2 24 24c0 14.4-11.2 24-24 24zM448 104c-12.8 0-24-11.2-24-24s11.2-24 24-24 24 11.2 24 24-11.2 24-24 24zM235.2 699.2l-91.2 91.2-22.4-22.4 89.6-91.2 24 22.4zM595.2 768l-22.4 22.4-89.6-91.2 22.4-22.4 89.6 91.2zM368 880h-32v-128h32v128zM32 544h128v32h-128v-32zM966.4 313.6c0-80-65.6-145.6-145.6-145.6 0 0-4.8 0-4.8 0v8h-64v32h36.8l32-3.2c0 0 1.6-3.2 1.6-3.2 62.4 0 112 51.2 112 113.6 0 59.2-46.4 108.8-105.6 112l-24 1.6-4.8 24c-20.8 94.4-105.6 163.2-201.6 163.2-78.4 0-148.8-43.2-184-113.6l-9.6-19.2-20.8 1.6h-1.6c-1.6 0-4.8 1.6-6.4 1.6-78.4 0-142.4-62.4-142.4-140.8s64-139.2 140.8-140.8l8 3.2h1.6v-32h-16v-8c-96 0-171.2 78.4-171.2 174.4 0 40 16 76.8 38.4 107.2-24 27.2-38.4 64-38.4 104 0 88 72 160 160 160 62.4 0 115.2-35.2 142.4-86.4 30.4 12.8 62.4 20.8 97.6 20.8 115.2 0 211.2-81.6 233.6-188.8 76.8-4.8 136-68.8 136-145.6zM472 611.2c-20.8 41.6-64 70.4-113.6 70.4-70.4 0-128-57.6-128-128 0-30.4 11.2-57.6 28.8-80 30.4 27.2 70.4 44.8 115.2 44.8 3.2 0 8 0 11.2 0 19.2 36.8 49.6 70.4 86.4 92.8zM704 296c-12.8 0-24-11.2-24-24s11.2-24 24-24 24 11.2 24 24c0 14.4-11.2 24-24 24zM640 200c-12.8 0-24-11.2-24-24s11.2-24 24-24 24 11.2 24 24c0 14.4-11.2 24-24 24zM704 104c-12.8 0-24-11.2-24-24s11.2-24 24-24 24 11.2 24 24-11.2 24-24 24zM576 296c-12.8 0-24-11.2-24-24s11.2-24 24-24 24 11.2 24 24c0 14.4-11.2 24-24 24zM576 104c-12.8 0-24-11.2-24-24s11.2-24 24-24 24 11.2 24 24-11.2 24-24 24z" />
<glyph unicode="&#xe91c;" glyph-name="snow-moon" d="M760 513.6c-22.4 107.2-118.4 188.8-233.6 188.8-28.8 0-56-4.8-81.6-14.4-14.4 81.6-86.4 144-172.8 144-6.4 0-12.8 0-19.2-1.6 11.2-17.6 19.2-38.4 19.2-62.4 0-62.4-49.6-112-112-112-22.4 0-44.8 6.4-62.4 19.2-1.6-6.4-1.6-12.8-1.6-19.2 0-59.2 28.8-112 75.2-144-27.2-30.4-43.2-70.4-43.2-113.6 0-96 76.8-172.8 172.8-174.4v0h19.2v32h-19.2c-78.4 0-140.8 64-140.8 142.4s64 142.4 142.4 142.4c3.2 0 4.8 0 6.4 0h1.6l20.8-1.6 9.6 19.2c35.2 70.4 105.6 113.6 184 113.6 97.6 0 182.4-68.8 201.6-163.2l4.8-24 24-1.6c59.2-3.2 105.6-52.8 105.6-112 0-62.4-49.6-112-112-113.6 0 0-1.6 0-1.6 0h-59.2v-32h60.8c0 0 1.6 0 1.6 0 80 0 145.6 65.6 145.6 145.6 0 75.2-60.8 137.6-136 142.4zM313.6 571.2c-3.2 0-8 0-11.2 0-40 0-78.4-14.4-107.2-36.8-32 20.8-56 54.4-64 92.8 9.6-1.6 19.2-3.2 28.8-3.2 80 0 144 64 144 144 0 9.6-1.6 19.2-3.2 28.8 59.2-12.8 105.6-60.8 113.6-121.6-43.2-24-78.4-59.2-100.8-104zM400 328c0-12.8-11.2-24-24-24s-24 11.2-24 24 11.2 24 24 24 24-9.6 24-24zM464 232c0-12.8-11.2-24-24-24s-24 11.2-24 24 11.2 24 24 24 24-9.6 24-24zM592 232c0-12.8-11.2-24-24-24s-24 11.2-24 24 11.2 24 24 24 24-9.6 24-24zM528 328c0-12.8-11.2-24-24-24s-24 11.2-24 24 11.2 24 24 24 24-9.6 24-24zM656 328c0-12.8-11.2-24-24-24s-24 11.2-24 24 11.2 24 24 24 24-9.6 24-24zM400 136c0-12.8-11.2-24-24-24s-24 11.2-24 24 11.2 24 24 24 24-11.2 24-24zM528 136c0-12.8-11.2-24-24-24s-24 11.2-24 24 11.2 24 24 24 24-11.2 24-24zM656 136c0-12.8-11.2-24-24-24s-24 11.2-24 24 11.2 24 24 24 24-11.2 24-24z" />
<glyph unicode="&#xe91d;" glyph-name="snow-alt" d="M777.6 576c-25.6 118.4-131.2 208-257.6 208-102.4 0-192-59.2-235.2-144-4.8 0-8 0-12.8 0-105.6 0-192-86.4-192-192s84.8-192 190.4-192v0h33.6v32h-32c-88 0-160 72-160 160s72 160 160 160c3.2 0 4.8 0 8 0h1.6l20.8-1.6 9.6 19.2c41.6 78.4 120 126.4 208 126.4 108.8 0 204.8-76.8 227.2-182.4l4.8-24 24-1.6c67.2-4.8 120-60.8 120-128 0-70.4-57.6-128-128-128 0 0-1.6 0-1.6 0h-46.4v-32h46.4c0 0 1.6 0 1.6 0 88 0 160 72 160 160 0 84.8-65.6 153.6-150.4 160zM400 272v43.2l-36.8-20.8-11.2 19.2 40 22.4-40 22.4 11.2 19.2 36.8-20.8v43.2h32v-41.6l35.2 19.2 11.2-19.2-40-22.4 40-22.4-11.2-19.2-35.2 19.2v-41.6h-32zM524.8 182.4l-38.4-22.4 40-22.4-11.2-19.2-35.2 19.2v-41.6h-32v43.2l-36.8-20.8-11.2 19.2 40 22.4-40 22.4 11.2 19.2 36.8-20.8v43.2h32v-41.6l35.2 19.2 9.6-19.2zM670.4 294.4l-40-22.4 40-22.4-11.2-19.2-35.2 19.2v-41.6h-32v43.2l-36.8-20.8-11.2 19.2 40 22.4-40 22.4 11.2 19.2 36.8-20.8v43.2h32v-41.6l35.2 19.2 11.2-19.2z" />
<glyph unicode="&#xe91e;" glyph-name="snow-alt-sun" d="M48 592h128v-32h-128v32zM603.2 790.4l-22.4 22.4-89.6-89.6 22.4-22.4 89.6 89.6zM512 208v41.6l35.2-19.2 11.2 19.2-40 22.4 40 22.4-11.2 19.2-35.2-19.2v41.6h-32v-41.6l-36.8 20.8-11.2-19.2 40-22.4-40-22.4 11.2-19.2 36.8 20.8v-44.8h32zM384 896h-32v-128h32v128zM243.2 723.2l-91.2 91.2-22.4-22.4 89.6-91.2 24 22.4zM595.2 137.6l-35.2-19.2v41.6h-32v-41.6l-36.8 20.8-11.2-20.8 40-22.4-40-22.4 11.2-19.2 36.8 20.8v-43.2h32v41.6l35.2-19.2 11.2 19.2-40 22.4 40 22.4-11.2 19.2zM976 337.6c0-80-64-145.6-144-145.6 0 0 0 0 0 0v0h-32v32h30.4c0 0 1.6 0 1.6 0 62.4 0 112 51.2 112 113.6 0 59.2-46.4 108.8-105.6 112l-24 1.6-4.8 24c-20.8 96-105.6 164.8-203.2 164.8-78.4 0-148.8-43.2-184-113.6l-9.6-19.2-20.8 1.6h-1.6c-1.6 0-4.8 0-6.4 0-78.4 0-142.4-64-142.4-142.4s64-142.4 140.8-142.4h17.6v-32h-16c-96 0-174.4 78.4-174.4 174.4 0 40 12.8 76.8 35.2 107.2-24 27.2-38.4 64-38.4 104 0 88 72 160 160 160 62.4 0 115.2-35.2 142.4-86.4 30.4 12.8 62.4 20.8 97.6 20.8 115.2 0 211.2-81.6 233.6-188.8 75.2-4.8 136-68.8 136-145.6zM480 635.2c-20.8 41.6-64 70.4-113.6 70.4-70.4 0-128-57.6-128-128 0-30.4 11.2-57.6 28.8-80 30.4 27.2 70.4 43.2 115.2 43.2 3.2 0 8 0 11.2 0 19.2 38.4 49.6 72 86.4 94.4zM739.2 249.6l-35.2-19.2v41.6h-32v-41.6l-36.8 20.8-11.2-19.2 40-22.4-40-22.4 11.2-19.2 36.8 20.8v-44.8h32v41.6l35.2-19.2 11.2 19.2-40 22.4 40 22.4-11.2 19.2z" />
<glyph unicode="&#xe91f;" glyph-name="snow-alt-moon" d="M752 505.6c-22.4 108.8-118.4 188.8-233.6 188.8-28.8 0-56-4.8-81.6-14.4-14.4 81.6-86.4 144-172.8 144-6.4 0-12.8 0-19.2-1.6 11.2-17.6 19.2-40 19.2-62.4 0-62.4-49.6-112-112-112-22.4 0-44.8 6.4-62.4 19.2 0-6.4-1.6-12.8-1.6-19.2 0-59.2 28.8-112 75.2-144-27.2-30.4-43.2-70.4-43.2-113.6 0-96 76.8-174.4 172.8-174.4v0h19.2v32h-19.2c-78.4 0-140.8 64-140.8 142.4s64 142.4 142.4 142.4c3.2 0 4.8 0 6.4 0h1.6l20.8-1.6 9.6 19.2c35.2 70.4 105.6 113.6 184 113.6 97.6 0 182.4-68.8 201.6-163.2l4.8-24 24-1.6c59.2-3.2 105.6-52.8 105.6-112 0-62.4-49.6-112-112-113.6 0 0-1.6 0-1.6 0h-30.4v-32h28.8c0 0 1.6 0 1.6 0 80 0 145.6 65.6 145.6 145.6 3.2 75.2-57.6 137.6-132.8 142.4zM305.6 563.2c-3.2 0-8 0-11.2 0-40 0-78.4-14.4-107.2-36.8-32 20.8-56 54.4-64 92.8 9.6-1.6 19.2-3.2 28.8-3.2 80 0 144 64 144 144 0 9.6-1.6 19.2-3.2 28.8 59.2-12.8 105.6-60.8 113.6-121.6-43.2-24-78.4-59.2-100.8-104zM392 232v43.2l-36.8-20.8-11.2 19.2 40 22.4-40 22.4 11.2 19.2 36.8-20.8v41.6h32v-41.6l35.2 19.2 11.2-19.2-40-22.4 40-22.4-11.2-19.2-35.2 19.2v-41.6h-32zM518.4 142.4l-40-22.4 40-22.4-11.2-19.2-35.2 19.2v-41.6h-32v43.2l-36.8-20.8-11.2 19.2 40 22.4-40 22.4 11.2 19.2 36.8-20.8v41.6h32v-41.6l35.2 19.2 11.2-17.6zM662.4 254.4l-40-22.4 40-22.4-11.2-19.2-35.2 19.2v-41.6h-32v43.2l-36.8-20.8-11.2 19.2 40 22.4-40 22.4 11.2 19.2 36.8-20.8v41.6h32v-41.6l35.2 19.2 11.2-17.6z" />
<glyph unicode="&#xe920;" glyph-name="fog" d="M48 384v-32h896v32h-896zM112 288h800v-32h-800v32zM208 192h576v-32h-576v32zM912 448h-832v32h832v-32zM131.2 528h-35.2c30.4 65.6 97.6 112 174.4 112 4.8 0 8 0 12.8 0 43.2 86.4 132.8 144 235.2 144 126.4 0 232-89.6 257.6-208 40-3.2 76.8-20.8 104-48h-52.8c-16 8-33.6 14.4-52.8 16h-24l-4.8 24c-24 105.6-118.4 184-227.2 184-88 0-166.4-48-206.4-126.4l-9.6-19.2-20.8 1.6h-1.6c-3.2 0-4.8 0-8 0-60.8 0-112-32-140.8-80z" />
<glyph unicode="&#xe921;" glyph-name="fog-sun" d="M505.6 676.8l-22.4 22.4 89.6 91.2 22.4-22.4-89.6-91.2zM198.4 556.8c0 88 72 156.8 160 156.8 62.4 0 115.2-35.2 142.4-86.4 30.4 12.8 62.4 20.8 97.6 20.8 115.2 0 217.6-81.6 233.6-188.8v4.8h-32c-22.4 80-105.6 155.2-201.6 155.2-78.4 0-148.8-46.4-184-116.8l-9.6-19.2-20.8 1.6-1.6 1.6c-1.6 0-4.8 1.6-6.4 1.6-32 0-60.8-8-83.2-24h-59.2c-22.4 16-35.2 56-35.2 92.8zM230.4 552c0-30.4 11.2-57.6 28.8-80 30.4 27.2 70.4 44.8 115.2 44.8 3.2 0 8 0 11.2 0 19.2 38.4 49.6 72 86.4 94.4-20.8 41.6-64 70.4-113.6 70.4-70.4 0-128-57.6-128-129.6zM208 400h736v32h-736v-32zM368 864h-32v-112h32v112zM235.2 699.2l-91.2 91.2-22.4-22.4 89.6-91.2 24 22.4zM240 208h704v32h-704v-32zM176 336v-32h800v32h-800zM32 544h128v32h-128v-32zM336 112h480v48h-480v-48z" />
<glyph unicode="&#xe922;" glyph-name="fog-moon" d="M185.6 464v0h48c24 16 52.8 27.2 83.2 27.2 3.2 0 4.8 0 6.4 0h1.6l20.8-1.6 9.6 19.2c35.2 70.4 105.6 113.6 184 113.6 94.4 0 179.2-78.4 201.6-158.4h27.2v1.6c-16 108.8-115.2 188.8-228.8 188.8-28.8 0-54.4-4.8-80-14.4-14.4 81.6-84.8 144-171.2 144-6.4 0-12.8 0-19.2-1.6 11.2-17.6 19.2-40 19.2-62.4 0-62.4-49.6-112-112-112-22.4 0-44.8 6.4-62.4 19.2-1.6-6.4-1.6-12.8-1.6-19.2 0-59.2 28.8-112 73.6-144zM176 576c80 0 144 64 144 144 0 9.6-1.6 19.2-3.2 28.8 59.2-12.8 105.6-60.8 113.6-123.2-43.2-22.4-78.4-59.2-100.8-104-3.2 0-8 0-11.2 0-40 0-78.4-14.4-107.2-36.8-32 20.8-56 54.4-64 92.8 9.6 0 19.2-1.6 28.8-1.6zM144 432h736v-32h-736v32zM912 336v-32h-800v32h800zM176 224h704v-32h-704v32zM272 144h480v-32h-480v32z" />
<glyph unicode="&#xe923;" glyph-name="cloud-wind" d="M560 304h-321.6c-86.4 0-158.4 72-158.4 160s72 160 160 160c3.2 0 4.8 0 8 0h1.6l20.8-1.6 9.6 19.2c41.6 78.4 120 126.4 208 126.4 108.8 0 204.8-76.8 227.2-182.4l4.8-24 24-1.6c28.8-1.6 56-12.8 75.2-32h44.8c-27.2 36.8-68.8 60.8-118.4 64-25.6 118.4-131.2 208-257.6 208-102.4 0-192-59.2-235.2-144-4.8 0-8 0-12.8 0-105.6 0-192-86.4-192-192s84.8-192 190.4-192v0h321.6c35.2 0 64-28.8 64-64s-28.8-64-64-64v-32c52.8 0 96 43.2 96 96s-43.2 96-96 96zM624 368h-256v-32h256c52.8 0 96 43.2 96 96s-43.2 96-96 96v-32c35.2 0 64-28.8 64-64s-28.8-64-64-64zM832 464c27.2 0 48-20.8 48-48s-20.8-48-48-48c0 0-1.6 0-1.6 0h-78.4c0 0 0 0 0 0v0-32h88v1.6c40 3.2 72 36.8 72 78.4 0 44.8-35.2 80-80 80v-32zM896 304h-208v-32h144c0 0 0 0 0 0h62.4c0 0 1.6 0 1.6 0 27.2 0 48-20.8 48-48s-20.8-48-48-48v-32c44.8 0 80 35.2 80 80s-35.2 80-80 80zM272 336h64v32h-64v-32z" />
<glyph unicode="&#xe924;" glyph-name="cloud-wind-sun" d="M204.8 680l-89.6 89.6 22.4 22.4 89.6-89.6-22.4-22.4zM368 880h-32v-128h32v128zM768 272v0-32h80v-1.6c48 4.8 76.8 38.4 76.8 78.4 0 44.8-32 80-76.8 80v-32c27.2 0 48-20.8 48-48s-20.8-46.4-48-46.4c0 0-1.6 1.6-1.6 1.6h-78.4c0 0 0 0 0 0zM588.8 771.2l-22.4 22.4-91.2-89.6 22.4-22.4 91.2 89.6zM32 544h128v32h-128v-32zM384 240h64v32h-64v-32zM912 208h-208v-32h144c0 0 0 0 0 0h62.4c0 0 1.6-1.6 1.6-1.6 27.2 0 48-22.4 48-48s-20.8-48-48-48v-32c44.8 0 80 36.8 80 81.6s-35.2 80-80 80zM640 272h-160v-32h160c52.8 0 96 41.6 96 94.4s-43.2 94.4-96 94.4v-32c35.2 0 64-27.2 64-62.4s-28.8-62.4-64-62.4zM672 110.4c0-52.8-43.2-96-96-96v32c35.2 0 64 28.8 64 64s-28.8 64-64 64v1.6h-208v-3.2c-96 0-174.4 78.4-174.4 174.4 0 40 12.8 76.8 35.2 107.2-24 27.2-38.4 64-38.4 102.4 0 88 72 160 160 160 62.4 0 115.2-35.2 142.4-86.4 30.4 12.8 62.4 20.8 97.6 20.8 115.2 0 211.2-76.8 233.6-188.8h-33.6c-22.4 96-105.6 156.8-200 156.8-78.4 0-148.8-44.8-184-113.6l-9.6-19.2-20.8 1.6h-1.6c-1.6 0-4.8 0-6.4 0-78.4 0-142.4-64-142.4-140.8 0-78.4 64-140.8 140.8-140.8l9.6 1.6h200v-1.6c52.8 0 96-43.2 96-96zM251.2 476.8c30.4 27.2 70.4 43.2 115.2 43.2 3.2 0 8 0 11.2 0 19.2 38.4 49.6 72 86.4 94.4-20.8 41.6-64 68.8-113.6 68.8-70.4 0-128-57.6-128-128 1.6-28.8 11.2-56 28.8-78.4z" />
<glyph unicode="&#xe925;" glyph-name="cloud-wind-moon" d="M512 240v0h-209.6c-78.4 0-142.4 64-142.4 142.4s64 142.4 142.4 142.4c3.2 0 4.8 0 6.4 0h1.6l20.8-1.6 9.6 19.2c35.2 70.4 105.6 113.6 184 113.6 94.4 0 177.6-65.6 200-156.8h33.6c-22.4 107.2-118.4 188.8-233.6 188.8-28.8 0-56-4.8-81.6-14.4-14.4 81.6-86.4 144-172.8 144-6.4 0-12.8 0-19.2-1.6 11.2-17.6 19.2-38.4 19.2-62.4 0-62.4-49.6-112-112-112-22.4 0-44.8 6.4-62.4 19.2 0-8 0-14.4 0-20.8 0-59.2 30.4-112 75.2-144-27.2-30.4-43.2-70.4-43.2-113.6 0-96 76.8-172.8 172.8-174.4v0h211.2c35.2 0 64-28.8 64-64s-28.8-64-64-64v-32c52.8 0 96 43.2 96 96s-43.2 96-96 96zM131.2 611.2c9.6-1.6 19.2-3.2 28.8-3.2 80 0 144 64 144 144 0 9.6-1.6 19.2-3.2 28.8 59.2-12.8 105.6-60.8 113.6-123.2-43.2-22.4-78.4-59.2-100.8-102.4-3.2 0-8 0-11.2 0-40 0-78.4-14.4-107.2-36.8-32 20.8-56 54.4-64 92.8zM640 368c0 35.2-28.8 64-64 64v32c52.8 0 96-43.2 96-96s-43.2-96-96-96h-160v32h160c35.2 0 64 28.8 64 64zM704 304h78.4c0 0 1.6 0 1.6 0 27.2 0 48 20.8 48 48s-20.8 48-48 48v32c44.8 0 80-35.2 80-80 0-41.6-32-75.2-72-80v0h-88v32c0 0 0 0 0 0zM928 160c0-44.8-35.2-80-80-80v32c27.2 0 48 20.8 48 48s-20.8 48-48 48c0 0-1.6 0-1.6 0h-62.4c0 0 0 0 0 0h-144v32h208c44.8 0 80-35.2 80-80zM320 304h64v-32h-64v32z" />
<glyph unicode="&#xe926;" glyph-name="wind-sun" d="M496 864h-32v-160h32v160zM224 432h-160v32h160v-32zM667.2 612.8l-22.4 22.4 118.4 118.4 22.4-22.4-118.4-118.4zM292.8 612.8l-118.4 118.4 22.4 22.4 118.4-118.4-22.4-22.4zM640 128c0-52.8-43.2-96-96-96v32c35.2 0 64 28.8 64 64s-28.8 64-64 64h-384v32h384c52.8 0 96-43.2 96-96zM736 288h78.4c0 0 1.6 0 1.6 0 27.2 0 48 20.8 48 48s-20.8 48-48 48v32c44.8 0 80-35.2 80-80 0-41.6-32-75.2-72-78.4v-1.6h-88v32c0 0 0 0 0 0zM960 144c0-44.8-35.2-80-80-80v32c27.2 0 48 20.8 48 48s-20.8 48-48 48c0 0-1.6 0-1.6 0h-62.4c0 0 0 0 0 0h-144v32h208c44.8 0 80-35.2 80-80zM272 448c0 115.2 92.8 208 208 208 104 0 190.4-76.8 204.8-176h-32c-14.4 81.6-86.4 144-172.8 144-97.6 0-176-78.4-176-176 0-70.4 43.2-132.8 104-160h200c35.2 0 64 28.8 64 64s-28.8 64-64 64v32c52.8 0 96-43.2 96-96s-43.2-96-96-96h-448v32h187.2c-46.4 38.4-75.2 96-75.2 160z" />
<glyph unicode="&#xe927;" glyph-name="wind-moon" d="M496 368h-384v-32h384c35.2 0 64-28.8 64-64s-28.8-64-64-64v-32c52.8 0 96 43.2 96 96s-43.2 96-96 96zM688 400v32c0 0 0 0 0 0h78.4c0 0 1.6 0 1.6 0 27.2 0 48 20.8 48 48s-20.8 48-48 48v32c44.8 0 80-35.2 80-80 0-41.6-32-75.2-72-78.4v-1.6h-88zM912 288c0-44.8-35.2-80-80-80v32c27.2 0 48 20.8 48 48s-20.8 48-48 48c0 0-1.6 0-1.6 0h-62.4c0 0 0 0 0 0h-144v32h208c44.8 0 80-36.8 80-80zM304 400h-192v32h187.2c-43.2 36.8-72 89.6-75.2 150.4 24-17.6 52.8-27.2 84.8-27.2 81.6 0 147.2 65.6 147.2 147.2 0 36.8-14.4 70.4-36.8 97.6 4.8 0 8 0 12.8 0 104 0 190.4-76.8 204.8-176h-32c-12.8 67.2-62.4 120-126.4 137.6 6.4-19.2 9.6-38.4 9.6-59.2 0-99.2-80-179.2-179.2-179.2-14.4 0-28.8 1.6-41.6 4.8 16-43.2 49.6-76.8 91.2-96h201.6c35.2 0 64 28.8 64 64s-28.8 64-64 64v32c52.8 0 96-43.2 96-96s-43.2-96-96-96h-256z" />
<glyph unicode="&#xe928;" glyph-name="wind" d="M512 416h-320c-17.6 0-32 14.4-32 32s14.4 32 32 32h64v32h-64c-35.2 0-64-28.8-64-64s28.8-64 64-64h320c35.2 0 64-28.8 64-64s-28.8-64-64-64v-32c52.8 0 96 43.2 96 96s-43.2 96-96 96zM640 576c0-52.8-43.2-96-96-96h-256v32h256c35.2 0 64 28.8 64 64s-28.8 64-64 64v32c52.8 0 96-43.2 96-96zM640 480c0 0 0 0 0 0h78.4c0 0 1.6 0 1.6 0 27.2 0 48 20.8 48 48s-20.8 48-48 48v32c44.8 0 80-35.2 80-80 0-41.6-32-75.2-72-78.4v-1.6h-88v32zM896 336c0-44.8-35.2-80-80-80v32c27.2 0 48 20.8 48 48s-20.8 48-48 48c0 0-1.6 0-1.6 0h-62.4c0 0 0 0 0 0h-112v32h176c44.8 0 80-35.2 80-80z" />
<glyph unicode="&#xe929;" glyph-name="sunrise" d="M528 736h-32v-160h32v160zM699.2 484.8l-22.4 22.4 118.4 118.4 22.4-22.4-118.4-118.4zM324.8 484.8l-118.4 118.4 22.4 22.4 118.4-118.4-22.4-22.4zM512 374.4l107.2-107.2-22.4-22.4-68.8 68.8v-153.6h-32v153.6l-68.8-68.8-22.4 22.4 107.2 107.2zM928 320v-32h-288v32h48c0 0 0 0 0 0 0 97.6-78.4 176-176 176s-176-78.4-176-176c0 0 0 0 0 0h48v-32h-288v32h208c0 0 0 0 0 0 0 115.2 92.8 208 208 208s208-92.8 208-208c0 0 0 0 0 0h208z" />
<glyph unicode="&#xe92a;" glyph-name="sunset" d="M528 752h-32v-158.4h32v158.4zM817.6 620.8l-22.4 22.4-118.4-116.8 22.4-22.4 118.4 116.8zM347.2 526.4l-118.4 116.8-22.4-22.4 118.4-116.8 22.4 22.4zM528 204.8v166.4h-32v-166.4l-68.8 67.2-22.4-22.4 107.2-105.6 107.2 105.6-24 22.4-67.2-67.2zM720 340.8c0 0 0 0 0 0 0 113.6-92.8 206.4-208 206.4s-208-92.8-208-206.4c0 0 0 0 0 0h-208v-32h352v32h-112c0 0 0 0 0 0 0 96 78.4 174.4 176 174.4s176-78.4 176-174.4c0 0 0 0 0 0h-112v-32h352v32h-208z" />
<glyph unicode="&#xe92b;" glyph-name="upload" d="M612.8 326.4l22.4 22.4-107.2 107.2-107.2-107.2 22.4-22.4 68.8 68.8v-203.2h32v201.6l68.8-67.2zM793.6 558.4c-25.6 120-131.2 209.6-257.6 209.6-102.4 0-192-59.2-235.2-145.6-4.8 0-8 0-12.8 0-105.6 0-192-86.4-192-192s84.8-192 190.4-192v0h161.6v32h-160c-88 1.6-160 73.6-160 161.6s72 160 160 160c3.2 0 4.8 0 8 0h1.6l20.8-1.6 9.6 19.2c40 78.4 118.4 128 206.4 128 108.8 0 204.8-76.8 227.2-184l6.4-25.6 24-1.6c67.2-4.8 120-60.8 120-128 0-70.4-57.6-128-128-128 0 0-1.6 0-1.6 0h-174.4v-32h174.4c0 0 1.6 0 1.6 0 88 0 160 72 160 160 0 86.4-65.6 155.2-150.4 160z" />
<glyph unicode="&#xe92c;" glyph-name="download" d="M528 220.8v228.8h-32v-228.8l-68.8 67.2-22.4-22.4 107.2-105.6 107.2 105.6-22.4 22.4-68.8-67.2zM928 369.6c0-88-72-158.4-160-158.4 0 0-1.6 0-1.6 0v0h-110.4v32h110.4c0 0 1.6 0 1.6 0 70.4 0 128 57.6 128 128 0 67.2-52.8 123.2-120 126.4h-24l-4.8 24c-22.4 105.6-118.4 182.4-227.2 182.4-88 0-166.4-48-206.4-126.4l-9.6-19.2-20.8 1.6h-1.6c-3.2 0-4.8 0-8 0-88 0-160-72-160-158.4 0-88 72-158.4 158.4-158.4h96v-32h-97.6c-105.6 0-190.4 84.8-190.4 190.4s86.4 190.4 192 190.4c4.8 0 8 0 12.8 0 43.2 84.8 132.8 144 235.2 144 126.4 0 232-89.6 257.6-208 84.8-4.8 150.4-73.6 150.4-158.4z" />
<glyph unicode="&#xe92d;" glyph-name="hurricane" d="M870.4 640v0h-614.4c-17.6 0-32 14.4-32 32s14.4 32 32 32h528c44.8 0 80 35.2 80 80s-35.2 80-80 80h-606.4c0 0-1.6 0-1.6 0-44.8 0-80-35.2-80-80s35.2-80 80-80v32c-27.2 0-48 20.8-48 48s20.8 48 48 48h608c27.2 0 48-20.8 48-48s-20.8-48-48-48h-528c-35.2 0-64-28.8-64-64s28.8-64 64-64h608c17.6 0 32-14.4 32-32s-14.4-32-32-32h-512c-35.2 0-64-28.8-64-64s28.8-64 64-64h352c17.6 0 32-14.4 32-32s-14.4-32-32-32h-384c-35.2 0-64-28.8-64-64s28.8-64 64-64v0h192c17.6 0 32-14.4 32-32s-14.4-32-32-32h-32c-35.2 0-64-28.8-64-64s28.8-64 64-64v32c-17.6 0-32 14.4-32 32s14.4 32 32 32h32c35.2 0 64 28.8 64 64s-28.8 64-64 64h-192c-17.6 0-32 14.4-32 32s14.4 32 32 32h384c35.2 0 64 28.8 64 64s-27.2 62.4-60.8 64v0h-355.2c-17.6 0-32 14.4-32 32s14.4 32 32 32h512c35.2 0 64 28.8 64 64 0 33.6-25.6 60.8-57.6 64z" />
<glyph unicode="&#xe92e;" glyph-name="light" d="M572.8 736l-28.8-241.6-4.8-35.2h147.2l-235.2-300.8 28.8 232 4.8 35.2h-148.8l236.8 310.4zM619.2 848l-347.2-452.8h176l-43.2-347.2 347.2 443.2h-176l43.2 356.8z" />
<glyph unicode="&#xe92f;" glyph-name="umbrella" d="M528 784v32h-32v-32c-208-8-376-176-384-384h27.2c17.6 19.2 44.8 32 73.6 32 36.8 0 67.2-19.2 84.8-48h28.8c17.6 28.8 49.6 48 84.8 48s65.6-17.6 84.8-46.4v-241.6c0-35.2 28.8-64 64-64s64 28.8 64 64h-32c0-17.6-14.4-32-32-32s-32 14.4-32 32v241.6c17.6 27.2 48 46.4 84.8 46.4s67.2-19.2 84.8-48h28.8c17.6 28.8 49.6 48 84.8 48 28.8 0 54.4-12.8 73.6-32h27.2c-8 208-176 376-384 384zM812.8 464c-40 0-75.2-17.6-100.8-46.4-24 28.8-59.2 46.4-99.2 46.4s-75.2-17.6-100.8-46.4c-24 28.8-60.8 46.4-100.8 46.4s-75.2-17.6-100.8-46.4c-22.4 28.8-59.2 46.4-99.2 46.4-22.4 0-43.2-6.4-62.4-16 30.4 172.8 182.4 304 363.2 304s332.8-131.2 363.2-304c-19.2 9.6-40 16-62.4 16z" />
<glyph unicode="&#xe930;" glyph-name="thermometer-0" d="M618.667 317.867v364.8c0 59.733-46.933 106.667-106.667 106.667s-106.667-46.933-106.667-106.667v-364.8c-25.6-27.733-42.667-64-42.667-104.533 0-83.2 66.133-149.333 149.333-149.333s149.333 66.133 149.333 149.333c0 40.533-17.067 76.8-42.667 104.533zM512 106.667c-59.733 0-106.667 46.933-106.667 106.667 0 27.733 10.667 55.467 29.867 74.667l12.8 12.8v381.867c0 36.267 27.733 64 64 64s64-27.733 64-64v-381.867l12.8-12.8c19.2-19.2 29.867-46.933 29.867-74.667 0-59.733-46.933-106.667-106.667-106.667zM512 277.333c-36.267 0-64-27.733-64-64s27.733-64 64-64c36.267 0 64 27.733 64 64s-27.733 64-64 64zM512 192c-12.8 0-21.333 10.667-21.333 21.333s10.667 21.333 21.333 21.333 21.333-10.667 21.333-21.333-8.533-21.333-21.333-21.333z" />
<glyph unicode="&#xe931;" glyph-name="thermometer-1-4" d="M533.333 294.4v110.933h-42.667v-110.933c-25.6-8.533-42.667-32-42.667-59.733 0-36.267 27.733-64 64-64s64 27.733 64 64c0 27.733-17.067 51.2-42.667 59.733zM512 213.333c-12.8 0-21.333 10.667-21.333 21.333s10.667 21.333 21.333 21.333 21.333-10.667 21.333-21.333-8.533-21.333-21.333-21.333zM618.667 339.2v364.8c0 59.733-46.933 106.667-106.667 106.667s-106.667-46.933-106.667-106.667v-364.8c-25.6-27.733-42.667-64-42.667-104.533 0-83.2 66.133-149.333 149.333-149.333s149.333 66.133 149.333 149.333c0 40.533-17.067 76.8-42.667 104.533zM512 128c-59.733 0-106.667 46.933-106.667 106.667 0 27.733 10.667 55.467 29.867 74.667l12.8 12.8v381.867c0 36.267 27.733 64 64 64s64-27.733 64-64v-381.867l12.8-12.8c19.2-19.2 29.867-46.933 29.867-74.667 0-59.733-46.933-106.667-106.667-106.667z" />
<glyph unicode="&#xe932;" glyph-name="thermometer-1-2" d="M618.667 339.2v364.8c0 59.733-46.933 106.667-106.667 106.667s-106.667-46.933-106.667-106.667v-364.8c-25.6-27.733-42.667-64-42.667-104.533 0-83.2 66.133-149.333 149.333-149.333s149.333 66.133 149.333 149.333c0 40.533-17.067 76.8-42.667 104.533zM512 128c-59.733 0-106.667 46.933-106.667 106.667 0 27.733 10.667 55.467 29.867 74.667l12.8 12.8v381.867c0 36.267 27.733 64 64 64s64-27.733 64-64v-381.867l12.8-12.8c19.2-19.2 29.867-46.933 29.867-74.667 0-59.733-46.933-106.667-106.667-106.667zM533.333 294.4v217.6h-42.667v-217.6c-25.6-8.533-42.667-32-42.667-59.733 0-36.267 27.733-64 64-64s64 27.733 64 64c0 27.733-17.067 51.2-42.667 59.733zM512 213.333c-12.8 0-21.333 10.667-21.333 21.333s10.667 21.333 21.333 21.333 21.333-10.667 21.333-21.333-8.533-21.333-21.333-21.333z" />
<glyph unicode="&#xe933;" glyph-name="thermometer-3-4" d="M618.667 339.2v364.8c0 59.733-46.933 106.667-106.667 106.667s-106.667-46.933-106.667-106.667v-364.8c-25.6-27.733-42.667-64-42.667-104.533 0-83.2 66.133-149.333 149.333-149.333s149.333 66.133 149.333 149.333c0 40.533-17.067 76.8-42.667 104.533zM512 128c-59.733 0-106.667 46.933-106.667 106.667 0 27.733 10.667 55.467 29.867 74.667l12.8 12.8v381.867c0 36.267 27.733 64 64 64s64-27.733 64-64v-381.867l12.8-12.8c19.2-19.2 29.867-46.933 29.867-74.667 0-59.733-46.933-106.667-106.667-106.667zM533.333 294.4v324.267h-42.667v-324.267c-25.6-8.533-42.667-32-42.667-59.733 0-36.267 27.733-64 64-64s64 27.733 64 64c0 27.733-17.067 51.2-42.667 59.733zM512 213.333c-12.8 0-21.333 10.667-21.333 21.333s10.667 21.333 21.333 21.333 21.333-10.667 21.333-21.333-8.533-21.333-21.333-21.333z" />
<glyph unicode="&#xe934;" glyph-name="thermometer-full" d="M533.333 294.4v430.933h-42.667v-430.933c-25.6-8.533-42.667-32-42.667-59.733 0-36.267 27.733-64 64-64s64 27.733 64 64c0 27.733-17.067 51.2-42.667 59.733zM512 213.333c-12.8 0-21.333 10.667-21.333 21.333s10.667 21.333 21.333 21.333 21.333-10.667 21.333-21.333-8.533-21.333-21.333-21.333zM618.667 339.2v364.8c0 59.733-46.933 106.667-106.667 106.667s-106.667-46.933-106.667-106.667v-364.8c-25.6-27.733-42.667-64-42.667-104.533 0-83.2 66.133-149.333 149.333-149.333s149.333 66.133 149.333 149.333c0 40.533-17.067 76.8-42.667 104.533zM512 128c-59.733 0-106.667 46.933-106.667 106.667 0 27.733 10.667 55.467 29.867 74.667l12.8 12.8v381.867c0 36.267 27.733 64 64 64s64-27.733 64-64v-381.867l12.8-12.8c19.2-19.2 29.867-46.933 29.867-74.667 0-59.733-46.933-106.667-106.667-106.667z" />
<glyph unicode="&#xe935;" glyph-name="degree-celcius" d="M320 768c-46.933 0-85.333-38.4-85.333-85.333s38.4-85.333 85.333-85.333c46.933 0 85.333 38.4 85.333 85.333s-38.4 85.333-85.333 85.333zM320 640c-23.467 0-42.667 19.2-42.667 42.667s19.2 42.667 42.667 42.667c23.467 0 42.667-19.2 42.667-42.667s-19.2-42.667-42.667-42.667zM759.467 243.2l29.867-29.867c-38.4-51.2-100.267-85.333-170.667-85.333-117.333 0-213.333 96-213.333 213.333v85.333c0 117.333 96 213.333 213.333 213.333 70.4 0 132.267-34.133 170.667-85.333l-29.867-29.867c-32 42.667-83.2 72.533-140.8 72.533-93.867 0-170.667-76.8-170.667-170.667v-85.333c0-93.867 76.8-170.667 170.667-170.667 57.6 0 108.8 29.867 140.8 72.533z" />
<glyph unicode="&#xe936;" glyph-name="degree-farenheit" d="M341.333 768c-46.933 0-85.333-38.4-85.333-85.333s38.4-85.333 85.333-85.333c46.933 0 85.333 38.4 85.333 85.333s-38.4 85.333-85.333 85.333zM341.333 640c-23.467 0-42.667 19.2-42.667 42.667s19.2 42.667 42.667 42.667 42.667-19.2 42.667-42.667-19.2-42.667-42.667-42.667zM509.867 595.2v-170.667h170.667v-42.667h-170.667v-256h-42.667v512h300.8v-42.667h-258.133z" />
<glyph unicode="&#xe937;" glyph-name="compass" d="M512 85.333c-200.533 0-362.667 162.133-362.667 362.667s162.133 362.667 362.667 362.667 362.667-162.133 362.667-362.667-162.133-362.667-362.667-362.667zM512 768c-177.067 0-320-142.933-320-320s142.933-320 320-320 320 142.933 320 320-142.933 320-320 320zM349.867 285.867l81.067 243.2 243.2 81.067-81.067-243.2-243.2-81.067zM465.067 494.933l-46.933-140.8 140.8 46.933 46.933 140.8-140.8-46.933z" />
<glyph unicode="&#xe938;" glyph-name="absinthe" d="M853.456 95.87c2.2 1.234 4.296 2.716 6.208 4.516l57.806 54.366c14.752 13.874 24.682 32.52 27.962 52.5l40.954 249.452c0.988 6.012-0.706 12.12-4.65 16.764s-9.698 7.306-15.788 7.306h-256.001c-6.090 0-11.844-2.662-15.788-7.306s-5.636-10.752-4.652-16.764v0.002l40.956-249.454c3.28-19.98 13.21-38.626 27.962-52.5l57.806-54.366c1.912-1.8 4.010-3.282 6.208-4.516v-90.232c-22.346-7.028-59.24-23.416-82.686-34.202-0.634-0.292-1.246-0.626-1.83-1.002-6.862-4.398-9.952-13.276-7.514-21.59 2.252-7.68 8.892-12.842 16.522-12.842h182.036c7.63 0 14.268 5.16 16.52 12.84 2.438 8.314-0.654 17.194-7.514 21.592-0.584 0.376-1.198 0.71-1.83 1.002-23.452 10.788-60.354 27.18-82.7 34.206 0.004-0.002 0.010-0.002 0.014-0.004v90.232zM873.514-33.956h-71.136c16.876 6.968 30.62 12.108 35.57 12.904 4.944-0.796 18.692-5.936 35.566-12.904zM839.082 122.268c-0.634-0.6-1.634-0.596-2.266 0l-57.806 54.366c-9.972 9.378-16.684 21.982-18.9 35.484l-7.458 45.426h77.738c8.296 0 15.020 6.724 15.020 15.020s-6.724 15.020-15.020 15.020h-82.67l-26.786 163.146h234.026l-26.786-163.146h-27.896c-8.296 0-15.020-6.724-15.020-15.020s6.724-15.020 15.020-15.020h22.966l-7.458-45.426c-2.216-13.504-8.926-26.106-18.9-35.484l-57.804-54.366zM512.499 71.818h-358.621c-8.296 0-15.020-6.724-15.020-15.020s6.724-15.020 15.020-15.020h358.621c8.296 0 15.020 6.724 15.020 15.020s-6.724 15.020-15.020 15.020zM505.825 473.613h-345.273c-18.806 0-34.104-15.298-34.104-34.102v-290.969c0-18.804 15.298-34.102 34.104-34.102h345.273c18.806 0 34.104 15.298 34.104 34.102v290.969c0 18.804-15.298 34.102-34.104 34.102zM509.887 148.542c0-2.24-1.822-4.060-4.062-4.060h-345.273c-2.24 0-4.062 1.82-4.062 4.060v290.969c0 2.24 1.822 4.060 4.062 4.060h345.273c2.24 0 4.062-1.82 4.062-4.060v-290.969zM465.257 419.825h-264.137c-11.516 0-20.884-9.368-20.884-20.882v-209.832c0-11.516 9.368-20.884 20.884-20.884h264.137c11.516 0 20.884 9.368 20.884 20.884v209.832c0 11.514-9.368 20.882-20.884 20.882zM456.099 198.269h-245.822v191.514h245.822v-191.514zM547.531 637.071l-58.036 14.018c-24.866 6.008-44.316 23.602-53.218 46.254-0.19 0.636-0.422 1.25-0.69 1.846-2.988 8.22-4.612 17.062-4.612 26.238v83.534c13.406 3.224 23.412 15.284 23.412 29.666v90.834c0 16.84-13.7 30.54-30.54 30.54h-181.314c-16.84 0-30.54-13.7-30.54-30.54v-90.834c0-14.38 10.004-26.44 23.41-29.666v-83.536c0-9.182-1.628-18.032-4.62-26.256-0.262-0.586-0.49-1.188-0.676-1.812-8.9-22.658-28.352-40.262-53.224-46.27l-58.036-14.018c-47.992-11.588-81.51-54.166-81.51-103.536v-53.9c0-8.296 6.724-15.020 15.020-15.020s15.020 6.724 15.020 15.020v53.9c0 35.446 24.064 66.014 58.52 74.336l58.036 14.018c31.542 7.618 56.828 28.624 70.46 56.142h157.59c13.632-27.52 38.918-48.524 70.462-56.142l58.036-14.018c34.456-8.322 58.52-38.89 58.52-74.336v-529.007c0-21.218-17.264-38.484-38.484-38.484h-454.655c-21.22 0-38.484 17.264-38.484 38.484v404.477c0 8.296-6.724 15.020-15.020 15.020s-15.020-6.724-15.020-15.020v-404.477c0-37.786 30.74-68.526 68.526-68.526h454.655c37.786 0 68.526 30.74 68.526 68.526v529.009c-0.004 49.37-33.52 91.948-81.514 103.536zM264.027 708.072c0.924 5.662 1.416 11.458 1.416 17.354v19.046h135.492v-19.046c0-5.896 0.492-11.692 1.416-17.354h-138.324zM265.441 774.514v33.572h135.492v-33.572h-135.492zM424.345 838.626c0-0.276-0.222-0.498-0.498-0.498h-181.314c-0.276 0-0.498 0.222-0.498 0.498v90.834c0 0.276 0.222 0.498 0.498 0.498h181.314c0.276 0 0.498-0.222 0.498-0.498v-90.834z" />
<glyph unicode="&#xe939;" glyph-name="barber" d="M785.706 956.342c-13.85 7.336-30.318 3.362-39.296-9.432l-296.917-402.291-299.189 400.729c-9.046 12.746-25.534 16.63-39.34 9.224-13.91-7.462-19.778-23.528-13.95-38.198 0.196-0.494 0.414-0.978 0.656-1.454l87.42-170.954c4.244-8.298 14.408-11.58 22.702-7.34 8.296 4.242 11.582 14.406 7.34 22.702l-69.436 135.788 485.571-650.361c3.314-4.438 8.388-6.78 13.534-6.78 3.512 0 7.052 1.092 10.080 3.354 7.466 5.574 9 16.146 3.426 23.614l-112.234 150.324 253.128 501.497c0.238 0.474 0.456 0.96 0.65 1.454 5.752 14.702-0.198 30.734-14.146 38.124zM523.517 445.471l-52.938 70.902 280.677 380.283-227.738-451.185zM787.236 134.154c-11.184 16.122-27.98 26.92-47.286 30.412-19.308 3.494-38.82-0.746-54.94-11.934-33.276-23.092-41.564-68.95-18.476-102.226 14.25-20.538 37.17-31.556 60.456-31.556 14.444 0 29.030 4.24 41.768 13.078 33.28 23.090 41.566 68.946 18.478 102.226zM749.525 59.648c-17.996-12.484-42.788-8.002-55.268 9.988-12.484 17.994-8.004 42.788 9.988 55.27 6.726 4.666 14.54 7.094 22.556 7.094 2.374 0 4.764-0.214 7.146-0.644 10.44-1.888 19.52-7.724 25.566-16.442 12.484-17.99 8.002-42.784-9.988-55.266zM246.832 104.272c-3.592 19.29-14.478 36.026-30.658 47.128-16.178 11.098-35.708 15.236-55.002 11.644-19.29-3.592-36.026-14.478-47.128-30.658-22.914-33.4-14.386-79.214 19.016-102.128 12.374-8.49 26.712-12.906 41.402-12.906 4.514 0 9.066 0.416 13.6 1.262 19.29 3.592 36.026 14.478 47.126 30.658 11.1 16.178 15.234 35.71 11.644 55zM207.362 68.36c-6-8.748-15.050-14.634-25.478-16.576s-20.99 0.294-29.736 6.296c-18.056 12.388-22.668 37.158-10.28 55.214 7.686 11.208 20.144 17.234 32.804 17.234 7.74 0 15.558-2.252 22.41-6.954 8.748-6.002 14.634-15.052 16.576-25.48 1.942-10.426-0.292-20.988-6.296-29.734zM972.63 14.136c-8.762 11.498-22.096 18.502-36.59 19.218-22.34 1.102-53.556 4.27-84.218 12.714 2.664 7.248 4.75 14.764 6.154 22.518 6.33 35.016-1.356 70.4-21.642 99.638-35.096 50.582-99.758 70.438-157.238 48.292-8.694-3.35-13.030-13.114-9.678-21.808 3.35-8.696 13.116-13.024 21.808-9.678 42.918 16.538 91.188 1.714 117.386-36.042 15.146-21.832 20.886-48.252 16.16-74.4-1.88-10.408-5.354-20.262-10.204-29.326-0.63-0.914-1.172-1.898-1.622-2.954-7.228-12.464-17.166-23.296-29.356-31.754-21.832-15.148-48.252-20.886-74.4-16.16s-48.886 19.35-64.034 41.18c-25.626 36.932-23.176 86.682 5.954 120.984 5.42 6.382 5.34 15.774-0.188 22.060l-183.89 209.152c-3.42 3.892-8.428 5.986-13.612 5.704l-5.074-0.284c-2.612 0.47-5.298 0.32-7.838-0.438l-36.864-2.060-157.64 308.277c-4.242 8.296-14.41 11.58-22.702 7.34-8.296-4.242-11.582-14.406-7.34-22.702l137.566-269.017-144.12-195.26c-54.262 14.816-112.28-5.97-144.64-53.136-41.556-60.57-26.088-143.656 34.484-185.214 22.984-15.77 49.202-23.328 75.17-23.326 42.468 0.002 84.256 20.22 110.044 57.808 31.268 45.578 30.784 105.45 0.142 150.346l165.31 190.33 166.578-189.466c-30.402-45.054-30.568-104.924 0.938-150.334 20.286-29.234 50.74-48.822 85.756-55.152 8-1.444 16.014-2.16 23.976-2.16 22.042 0 43.638 5.488 63.134 16.090 17.64-15.45 58.478-39.032 143.542-39.12 0.016 0 0.034 0 0.050 0 22.598 0 42.568 16.028 47.5 38.176 3.118 14-0.076 28.564-8.762 39.964zM250.116 177.554c-5.486-6.316-5.514-15.702-0.062-22.052 29.308-34.15 32.020-83.884 6.588-120.952-31.032-45.226-93.074-56.78-138.3-25.748-45.228 31.030-56.78 93.074-25.75 138.3 26 37.896 74.19 52.966 117.194 36.658 7.074-2.68 15.064-0.328 19.558 5.756l141.346 191.508 7.912-15.472c3.040-5.946 9.302-9.534 15.962-9.164l11.432 0.638-155.88-179.472zM948.446-18.534c-1.514-6.796-7.634-11.722-14.554-11.722-0.004 0-0.012 0-0.016 0-65.588 0.068-99.43 15.412-115.062 26.108 6.35 6.028 12.046 12.624 17.038 19.706 35.884-10.778 72.732-14.63 98.526-15.904 4.534-0.224 8.696-2.398 11.414-5.966 1.554-2.042 3.966-6.334 2.654-12.222z" />
<glyph unicode="&#xe93a;" glyph-name="beer" d="M606.051 401.525l-15.184 16.004c-5.7 6.010-15.196 6.262-21.206 0.558-6.010-5.702-6.26-15.196-0.558-21.206l15.184-16.004c5.702-6.012 15.198-6.26 21.206-0.558 6.012 5.702 6.262 15.196 0.558 21.206zM467.297 353.389c-9.264 1.814-17.92-5.248-17.92-14.72 0-8.234 6.706-15 15-15 8.572 0 15 7.036 15 15 0 6.68-4.578 13.156-12.080 14.72zM520.509 272.235c-24.888 0-45.136-20.248-45.136-45.136-0.002-24.888 20.246-45.136 45.136-45.136 24.886 0 45.136 20.248 45.136 45.136 0 24.89-20.25 45.136-45.136 45.136zM520.509 211.965c-8.346 0-15.134 6.79-15.134 15.134-0.002 8.346 6.788 15.134 15.134 15.134 8.344 0 15.134-6.79 15.134-15.134s-6.79-15.134-15.134-15.134zM747.433 722.928c25.708 30.396 33.356 73.232 18.694 110.972-18.214 46.892-66.416 75.172-115.394 69.412-25.584 46.608-82.946 69.624-135.504 49.21-20.746-8.058-38.392-22.158-50.792-40.358-47.546 15.362-98.892-8.692-117.37-55.2-36.156 3.594-73.092-15.874-89.070-52.14-16.132-36.626-5.478-78.424 24.326-103.11 0-55.33-0.57-81.606 3-127.198 0.008-0.238 0-0.476 0.020-0.714 14.574-184.932 60.846-192.304 60.178-533.375-0.040-20.27-0.16-46.44-0.16-67.364 0-20.436 16.626-37.064 37.064-37.064h269.477c20.436 0 37.064 16.626 37.064 37.064 0 90.624-2.128 172.346 6.664 266.991 0.766 8.25-5.3 15.556-13.548 16.324-8.254 0.764-15.556-5.3-16.324-13.548-6.148-66.194-7.056-125.774-7.018-186.476h-103.228c-8.284 0-15-6.716-15-15s6.716-15 15-15h103.302c0.074-19.426 0.152-36.082 0.152-53.288 0-3.894-3.168-7.062-7.062-7.062h-269.479c-3.894 0-7.062 3.168-7.062 7.062 0 16.76 0.076 36.422 0.126 53.288h110.020c8.284 0 15 6.716 15 15s-6.716 15-15 15h-109.974c-0.11 313.837-42.898 339.259-58.768 503.699h43.304v-58.54c0-27.968 22.752-50.72 50.722-50.72 27.968 0 50.72 22.752 50.72 50.72v58.54h256.603c-4.626-49.356-12.878-87.526-21.94-129.426-7.506-34.712-15.27-70.604-22-117.028-1.188-8.2 4.494-15.808 12.692-16.998 8.21-1.184 15.808 4.494 16.998 12.692 6.582 45.4 14.232 80.776 21.632 114.992 26.93 124.516 26.5 158.332 26.5 281.043 0 6.308-1.61 12.328-4.566 17.598zM360.067 590.053l-45.738 0.002c-2.436 37.108-2.004 56.506-2.004 115.274 0 3.276 2.79 6.010 6.010 6.010h41.732v-121.286zM720.373 590.057h-258.861v121.284h33.142v-48.51c0-27.968 22.754-50.722 50.724-50.722 27.968 0 50.72 22.752 50.72 50.722v48.51h119.892c3.012 0 6.010-2.466 6.010-6.010-0.002-57.634 0.36-80.734-1.626-115.274zM723.097 740.624c-1.852 0.376-4.876 0.714-7.108 0.714h-134.892c-8.284 0-15-6.716-15-15v-63.51c0-11.424-9.294-20.72-20.718-20.72-11.426 0-20.722 9.294-20.722 20.72v63.51c0 8.284-6.716 15-15 15h-63.142c-8.284 0-15-6.716-15-15-0.002-23.266-0.002-189.076-0.002-224.826 0-11.424-9.294-20.718-20.718-20.718s-20.72 9.294-20.72 20.718c0 35.808 0 202.090 0 224.828 0 8.284-6.716 15-15 15h-56.732c-9.102 0-17.872-3.574-24.204-9.322-13.586 16.126-18.020 39.506-8.678 60.712 11.708 26.58 40.822 39.964 68.060 32.658 3.928-1.056 8.118-0.468 11.608 1.626 3.488 2.094 5.976 5.516 6.894 9.48 9.482 40.984 54.658 62.086 92.056 43.514 7.366-3.66 16.296-0.708 20.034 6.614 8.878 17.392 23.788 30.866 41.986 37.934 39.956 15.522 85.792-4.076 102.178-43.686 2.806-6.788 10.114-10.544 17.268-8.874 38.476 8.972 78.294-12.072 92.624-48.96 10.932-28.158 4.81-60.222-15.072-82.412z" />
<glyph unicode="&#xe93b;" glyph-name="beer-bottle" d="M431.661 356.319c-8.286 0-15-6.714-15-15v-256.425c0-8.286 6.716-15 15-15 8.286 0 15 6.714 15 15v256.425c0 8.286-6.714 15-15 15zM499.825 356.319c-8.286 0-15-6.714-15-15v-256.425c0-8.286 6.716-15 15-15 8.286 0 15 6.714 15 15v256.425c0 8.286-6.714 15-15 15zM567.987 280.855c-8.286 0-15-6.714-15-15v-180.96c0-8.286 6.716-15 15-15 8.286 0 15 6.714 15 15v180.96c0.002 8.286-6.712 15-15 15zM636.153 280.855c-8.286 0-15-6.714-15-15v-180.96c0-8.286 6.714-15 15-15s15 6.714 15 15v180.96c0.002 8.286-6.712 15-15 15zM839.874 266.429c-8.284 0-15-6.714-15-15v-173.146c0-23.724-19.302-43.026-43.026-43.026h-64.152v18.688h64.148c13.42 0 24.34 10.918 24.34 24.34v265.543c0 13.42-10.918 24.34-24.34 24.34h-64.148v18.688h64.148c23.724 0 43.026-19.302 43.026-43.026v-43.062c0-8.286 6.716-15.002 15-15.002 8.286 0 15 6.714 15 15v43.062c0 40.268-32.76 73.028-73.028 73.028h-64.148v7.088c38.556 25.384 52.918 73.77 36.176 115.312-3.1 7.686-11.844 11.4-19.522 8.302-7.684-3.098-11.4-11.838-8.302-19.522 20.496-50.836-27.28-102.67-79.452-86.974-0.854 0.262-3.646 1.188-4.396 1.354-5.546 1.21-11.632-0.76-15.33-5.862-3.954-5.452-2.872-2.096-2.872-95.232 0-8.508-6.922-15.428-15.43-15.428s-15.428 6.92-15.428 15.428v84.848c0 4.846-2.34 9.392-6.284 12.208-8.808 6.286-14.306-0.096-26.108-0.096-11.756 0-22.728 5.278-30.102 14.48-5.352 6.686-15.218 7.534-21.636 1.868-24.394-21.538-60.678-21.702-85.254-1.002-6.312 5.316-15.734 4.536-21.088-1.752-11.924-14.010-31.648-17.414-47.314-9.136-40.726 21.442-15.648 84.958 29.428 70.92 7.878-2.458 16.26 1.914 18.76 9.776 11.722 36.878 52.662 55.39 87.98 40.256 7.85-3.364 16.902 0.502 19.928 8.452 18.99 49.904 90.478 51.404 110.5 0.674 1.46-3.702 4.334-6.672 7.986-8.254 10.43-4.52 13.678 4.386 35.492 4.386 10.902 0 21.688-2.734 31.188-7.904 7.272-3.96 16.382-1.274 20.348 6.002 3.96 7.276 1.274 16.384-6.002 20.348-20.456 11.136-44.546 14.374-67.244 9.058-34.564 58.934-119.788 58.068-154.030-0.522-21.692 5.616-45.392 3.442-66.14-6.772-3.884 2.586-8.096 4.634-12.526 6.056l-4.524 33.562c-1.108 8.21-8.664 13.966-16.87 12.862-8.21-1.106-13.968-8.658-12.862-16.87l4.964-36.84c-3.616-9.54 3.16-19.83 13.326-20.302-6.018-6.666-11.138-14.234-15.132-22.552-31.51 3.028-60.080-15.734-70.788-44.11h-110.008v46.386c0 11.166 9.086 20.252 20.254 20.252 7.51 0 13.864 5.554 14.866 12.996l16.040 119.018h116.388l3.48-25.816c1.108-8.21 8.664-13.966 16.868-12.862 8.208 1.106 13.968 8.658 12.862 16.87-2.458 18.234-19.994 148.328-22.906 169.926 17.148 6.71 29.334 23.406 29.334 42.904v23.298c0 25.4-20.666 46.062-46.064 46.062h-103.542c-25.4 0-46.062-20.664-46.062-46.062v-23.296c0-19.5 12.182-36.192 29.332-42.904-0.902-6.684-32.98-244.702-33.954-251.934-21.246-5.864-36.896-25.366-36.896-48.45 0-9.538 0-551.653 0-561.101 0-27.71 22.544-50.252 50.254-50.252 21.492 0 431.801 0 454.105 0 24.38 0 44.212 19.834 44.212 44.212v25.042h64.148c40.268 0 73.028 32.76 73.028 73.028v173.146c0.002 8.286-6.712 15-14.998 15zM717.693 338.165h58.486v-254.222h-58.486v254.222zM254.326 729.62l15.492 114.958h77.312l15.494-114.958h-108.298zM240.642 913.938c0 8.856 7.206 16.060 16.060 16.060h103.542c8.858 0 16.062-7.206 16.062-16.060v-23.296c0-8.856-7.206-16.060-16.062-16.060h-103.542c-8.856 0-16.060 7.206-16.060 16.060v23.296zM199.124 470.963h105.86c2.232-26.164 19.42-48.742 43.514-58.056v-276.823h-98.080c-8.286 0-15-6.714-15-15 0-8.284 6.714-15 15-15h98.080v-39.992h-149.374v404.871zM219.376-34c-11.166 0-20.254 9.084-20.254 20.25v49.836h149.376c0-58.918-0.904-60.53 2.342-70.088h-131.464zM687.693-19.788c0-7.836-6.376-14.21-14.21-14.21h-280.771c-7.836 0-14.21 6.376-14.21 14.21v24.764h309.191v-24.764zM687.693 34.978h-309.195c0 21.060 0 352.771 0 373.497 13.478 1.010 26.418 6.102 36.874 14.244 31.308-19.51 71.13-19.27 102.196 0.852 13.166-10.712 29.376-15.812 45.56-15.252v-67c0-25.050 20.38-45.43 45.43-45.43 25.052 0 45.432 20.38 45.432 45.43v67.644c11.244-1.356 22.914-0.636 33.7 1.952 0.002-19.582 0.002-362.665 0.002-375.937z" />
<glyph unicode="&#xe93c;" glyph-name="bonfire" d="M690.454 136.53c0.969 0 1.953 0.093 2.941 0.288l16.243 3.18c8.244 1.614 13.619 9.607 12.004 17.851s-9.613 13.619-17.851 12.004l-16.243-3.182c-8.244-1.614-13.619-9.607-12.004-17.851 1.422-7.257 7.782-12.29 14.911-12.29zM593.108 117.464c0.969 0 1.953 0.093 2.941 0.288l32.46 6.358c8.244 1.614 13.619 9.605 12.004 17.851-1.614 8.242-9.609 13.617-17.851 12.002l-32.46-6.358c-8.244-1.614-13.619-9.605-12.004-17.851 1.422-7.257 7.784-12.29 14.911-12.29zM998.604 97.158l-69.846 13.682 69.846 13.682c17.010 3.332 28.138 19.882 24.806 36.891l-18.713 95.532c-1.61 8.222-6.34 15.337-13.321 20.028-6.977 4.693-15.353 6.389-23.573 4.778l-455.805-89.282-455.803 89.286c-8.224 1.61-16.594-0.087-23.573-4.778-6.979-4.693-11.708-11.806-13.319-20.028l-18.713-95.534c-3.332-17.010 7.796-33.559 24.806-36.891l69.846-13.682-69.846-13.682c-17.010-3.332-28.14-19.882-24.808-36.891l18.713-95.532c1.61-8.222 6.34-15.337 13.319-20.028 5.259-3.537 11.309-5.372 17.493-5.372 2.020 0 4.056 0.197 6.080 0.592l455.805 89.28 455.805-89.28c2.026-0.395 4.060-0.592 6.082-0.592 6.182 0 12.234 1.833 17.493 5.37 6.979 4.691 11.708 11.806 13.321 20.028l18.713 95.534c3.33 17.010-7.798 33.559-24.808 36.889zM174.197 126.375l-142.952 28.002c-0.511 0.099-0.9 0.679-0.801 1.191l6.616 33.772 115.067-22.538c0.988-0.195 1.971-0.288 2.941-0.288 7.125 0 13.489 5.034 14.911 12.29 1.614 8.244-3.76 16.235-12.002 17.851l-115.069 22.538 6.251 31.906c0.049 0.256 0.199 0.466 0.44 0.631 0.241 0.162 0.493 0.219 0.748 0.168l382.523-74.927-258.516-50.636c-0.053 0.010-0.103 0.028-0.156 0.039zM50.346-30.22c-0.254-0.051-0.507 0.006-0.748 0.168s-0.389 0.375-0.44 0.631l-18.713 95.532c-0.101 0.511 0.288 1.091 0.799 1.191l483.805 94.766c0.034 0.008 0.069 0.014 0.103 0.020l458.5 89.809c0.061 0.010 0.12 0.016 0.178 0.016 0.195 0 0.385-0.063 0.572-0.187 0.241-0.162 0.389-0.375 0.44-0.631l5.312-27.112-211.484-41.422c-8.242-1.614-13.617-9.607-12.002-17.851 1.422-7.257 7.784-12.29 14.911-12.29 0.969 0 1.953 0.093 2.941 0.288l211.482 41.424 7.555-38.567c0.101-0.511-0.288-1.091-0.799-1.191l-483.838-94.772c-0.016-0.004-0.034-0.006-0.051-0.010l-458.523-89.813zM974.843-29.419c-0.049-0.256-0.199-0.466-0.44-0.631-0.243-0.162-0.497-0.219-0.75-0.168l-382.523 74.927 258.518 50.638c0.053-0.010 0.103-0.028 0.156-0.039l142.952-28c0.511-0.101 0.9-0.679 0.799-1.191l-18.711-95.536zM512 244.797c125.81 0 228.163 102.353 228.163 228.163 0 90.555-35.912 169.668-66.040 220.089-32.511 54.408-64.758 87.351-66.115 88.726-2.845 2.886-6.725 4.517-10.777 4.529-0.018 0-0.034 0-0.053 0-4.034 0-7.902-1.602-10.755-4.456l-28.905-28.903c-41.998 77.833-30.535 185.65-30.408 186.796 0.716 6.301-2.553 12.384-8.202 15.264s-12.491 1.955-17.172-2.322c-70.877-64.768-129.051-150.74-168.234-248.625-31.566-78.857-49.669-163.089-49.669-231.098 0.002-125.808 102.357-228.163 228.165-228.163zM361.749 692.753c32.322 80.745 78.036 152.916 133.288 210.815-0.024-46.555 6.802-124.762 46.989-183.64 2.553-3.74 6.638-6.149 11.149-6.571 4.509-0.418 8.97 1.188 12.171 4.391l31.272 31.272c29.631-34.466 113.122-143.378 113.122-276.059 0-109.036-88.706-197.741-197.741-197.741s-197.741 88.706-197.741 197.741c0.002 64.285 17.312 144.396 47.492 219.793zM430.875 390.821c8.4 0 15.211 6.81 15.211 15.211 0 18.21 10.52 33.677 26.443 57.091 13.428 19.744 29.55 43.45 44.306 76.683 3.016-3.797 6.358-8.151 9.887-12.98 4.955-6.784 14.473-8.267 21.255-3.312 6.784 4.955 8.267 14.471 3.312 21.255-8.163 11.181-15.097 19.594-19.476 24.682-8.676 10.086-13.023 15.146-21.894 13.911-5.545-0.773-10.236-4.543-12.181-9.792-15.722-42.402-34.93-70.645-50.364-93.338-17.716-26.049-31.71-46.624-31.71-74.199 0-8.402 6.81-15.213 15.211-15.213zM577.914 406.032c0-36.346-29.57-65.914-65.914-65.914-20.946 0-40.179 9.625-52.768 26.406-5.042 6.719-14.574 8.082-21.295 3.040-6.719-5.040-8.080-14.576-3.040-21.295 18.389-24.514 46.493-38.573 77.103-38.573 53.118 0 96.336 43.217 96.336 96.336 0 26.11-8.551 55.787-25.416 88.211-3.878 7.451-13.061 10.352-20.514 6.474-7.453-3.876-10.352-13.061-6.476-20.514 14.588-28.043 21.985-52.997 21.985-74.17z" />
<glyph unicode="&#xe93d;" glyph-name="brandy" d="M412.058 264.86c-11.766 20.342-38.442 33.486-67.96 33.486s-56.192-13.144-67.96-33.486c-4.144-7.17-1.694-16.346 5.478-20.494 7.174-4.148 16.346-1.698 20.492 5.474 6.304 10.898 23.572 18.51 41.992 18.51s35.688-7.612 41.992-18.51c2.78-4.806 7.818-7.492 12.996-7.492 2.548 0 5.132 0.65 7.496 2.018 7.172 4.148 9.622 13.324 5.474 20.494zM399.078 198.354h-109.952c-8.284 0-14.998-6.716-14.998-14.998 0-8.284 6.714-14.998 14.998-14.998h109.952c8.284 0 14.998 6.716 14.998 14.998s-6.714 14.998-14.998 14.998zM399.078 144.358h-109.952c-8.284 0-14.998-6.716-14.998-14.998s6.714-14.998 14.998-14.998h109.952c8.284 0 14.998 6.716 14.998 14.998s-6.714 14.998-14.998 14.998zM437.668 352.34h-187.136c-15.488 0-28.090-12.6-28.090-28.088v-237.798c0.002-15.488 12.602-28.090 28.090-28.090h187.136c15.488 0 28.090 12.6 28.090 28.090v237.798c0 15.488-12.6 28.088-28.090 28.088zM435.758 88.364h-183.318v233.98h183.318v-233.98zM502.258 467.262l-60.334 111.494c-26.418 48.818-40.38 103.96-40.38 159.466v108.184c6.26 4.308 10.378 11.516 10.378 19.674v70.044c0 13.164-10.71 23.876-23.876 23.876h-87.894c-13.164 0-23.874-10.712-23.874-23.876v-70.044c0-8.158 4.118-15.368 10.38-19.676v-108.182c0-55.504-13.964-110.648-40.38-159.466l-60.334-111.494c-10.248-18.94-15.664-40.336-15.664-61.87v-15.47c0-8.284 6.714-14.998 14.998-14.998s14.998 6.716 14.998 14.998v15.47c0 16.568 4.168 33.026 12.050 47.596l60.334 111.494c17.060 31.528 29.31 65.486 36.494 100.502h69.892c7.182-35.018 19.432-68.974 36.494-100.502l60.332-111.494c7.882-14.568 12.050-31.024 12.050-47.594v-412.006c0-14.872-12.098-26.972-26.97-26.972h-233.704c-14.872 0-26.97 12.1-26.97 26.972v326.746c0 8.284-6.714 14.998-14.998 14.998s-14.998-6.716-14.998-14.998v-326.75c0-31.412 25.556-56.968 56.968-56.968h233.706c31.412 0 56.968 25.556 56.968 56.968v412.006c0 21.54-5.418 42.934-15.666 61.872zM314.042 694.982c1.72 14.334 2.614 28.772 2.614 43.24v52.366h54.89v-52.364c0-14.468 0.896-28.91 2.614-43.242h-60.118zM316.656 820.584v21.62h54.89v-21.62h-54.89zM381.924 872.202h-75.648v57.8h75.648v-57.8zM829.554 234.806c-2.882 13.66-15.112 23.576-29.078 23.576h-186.808c-13.962 0-26.192-9.914-29.078-23.574-8.362-39.598-27.41-136.874-23.686-184.826 3.11-40.012 20.562-68.602 37.286-87.218 0.078-0.088 0.156-0.174 0.236-0.262 1.21-1.342 2.416-2.63 3.612-3.868 0.11-0.114 0.22-0.23 0.332-0.344 1.332-1.37 2.652-2.68 3.95-3.922 12.388-11.844 28.648-18.368 45.788-18.368h109.932c17.14 0 33.4 6.522 45.786 18.368 1.298 1.242 2.618 2.552 3.95 3.922 0.112 0.114 0.222 0.23 0.332 0.344 1.196 1.238 2.402 2.528 3.614 3.87 0.078 0.086 0.154 0.172 0.232 0.256 16.726 18.616 34.182 47.206 37.288 87.222 3.724 47.974-15.326 145.236-23.688 184.824zM792.402-18.538c-1.71-1.852-3.476-3.66-5.31-5.412-6.778-6.482-15.676-10.052-25.054-10.052h-109.932c-3.516 0-6.966 0.502-10.262 1.472-2.196 0.646-4.326 1.5-6.36 2.552-0.38 0.196-0.742 0.436-1.116 0.646-0.624 0.352-1.258 0.688-1.864 1.078-1.934 1.246-3.76 2.684-5.456 4.304-0.010 0.010-0.022 0.022-0.032 0.032-1.818 1.74-3.57 3.536-5.27 5.372-0.070 0.076-0.14 0.146-0.21 0.222 2.088-0.026 4.302-0.052 6.646-0.080 20.922-0.244 48.938-0.378 78.886-0.378 29.95 0 57.966 0.134 78.888 0.378 2.344 0.028 4.556 0.054 6.644 0.080-0.064-0.074-0.13-0.142-0.198-0.214zM823.332 52.304c-1.206-15.53-5.146-28.878-10.392-40.23-34.704-1.118-177.034-1.118-211.736 0-5.246 11.352-9.186 24.7-10.394 40.23-1.614 20.786 1.796 53.314 6.566 85.324h27.8c8.284 0 14.998 6.716 14.998 14.998s-6.714 14.998-14.998 14.998h-22.952c4.508 26.052 9.162 48.878 11.668 60.758h186.36c2.508-11.882 7.162-34.706 11.67-60.758h-116.958c-8.284 0-14.998-6.716-14.998-14.998s6.714-14.998 14.998-14.998h121.806c4.768-32.004 8.176-64.53 6.562-85.324z" />
<glyph unicode="&#xe93e;" glyph-name="carousel" d="M1023.982 536.843c-0.009 0.341-0.022 0.681-0.051 1.020-0.020 0.243-0.051 0.482-0.080 0.721-0.038 0.281-0.077 0.56-0.128 0.838-0.051 0.283-0.111 0.564-0.177 0.84-0.055 0.23-0.113 0.458-0.177 0.683-0.086 0.303-0.179 0.604-0.281 0.9-0.071 0.203-0.144 0.405-0.221 0.606-0.115 0.296-0.237 0.588-0.369 0.876-0.093 0.203-0.19 0.405-0.292 0.606-0.135 0.265-0.274 0.524-0.42 0.781-0.126 0.221-0.259 0.438-0.396 0.652-0.142 0.221-0.285 0.438-0.436 0.65-0.168 0.237-0.341 0.469-0.522 0.697-0.142 0.181-0.288 0.358-0.436 0.533-0.203 0.237-0.414 0.467-0.63 0.694-0.153 0.157-0.305 0.312-0.464 0.464-0.223 0.215-0.453 0.425-0.69 0.628-0.181 0.155-0.365 0.305-0.553 0.453-0.223 0.175-0.449 0.347-0.683 0.511-0.232 0.164-0.469 0.318-0.71 0.471-0.203 0.128-0.409 0.257-0.619 0.376-0.292 0.168-0.593 0.323-0.896 0.473-0.119 0.060-0.23 0.128-0.349 0.184l-485.814 225.552v25.905h178.039c6.71 0 12.757 4.041 15.325 10.24s1.148 13.332-3.596 18.076l-41.351 41.351 41.351 41.351c4.744 4.744 6.164 11.879 3.596 18.076-2.568 6.199-8.617 10.24-15.325 10.24h-178.039v1.106c0 9.161-7.427 16.587-16.587 16.587s-16.587-7.427-16.587-16.587v-166.346l-485.809-225.554c-0.122-0.055-0.232-0.126-0.352-0.184-0.303-0.15-0.602-0.305-0.896-0.471-0.212-0.122-0.418-0.25-0.624-0.378-0.239-0.15-0.476-0.305-0.706-0.469-0.237-0.166-0.464-0.338-0.69-0.515-0.186-0.146-0.367-0.294-0.546-0.447-0.239-0.206-0.473-0.416-0.699-0.635-0.155-0.148-0.305-0.301-0.456-0.456-0.221-0.23-0.433-0.462-0.639-0.703-0.146-0.17-0.288-0.345-0.429-0.522-0.184-0.232-0.361-0.467-0.529-0.708-0.148-0.208-0.288-0.42-0.427-0.637-0.139-0.219-0.276-0.442-0.405-0.668-0.144-0.252-0.281-0.506-0.414-0.767-0.104-0.206-0.203-0.411-0.299-0.621-0.128-0.283-0.25-0.571-0.363-0.86-0.080-0.206-0.155-0.414-0.228-0.621-0.1-0.292-0.192-0.586-0.276-0.885-0.066-0.232-0.124-0.464-0.179-0.699-0.064-0.274-0.124-0.548-0.175-0.827-0.051-0.281-0.093-0.564-0.13-0.849-0.031-0.237-0.060-0.473-0.080-0.712-0.029-0.341-0.044-0.681-0.051-1.026 0.002-0.128-0.013-0.254-0.013-0.385v-32.343c0-46.25 34.628-85.782 78.835-89.997 24.591-2.344 49.114 5.783 67.279 22.3 4.505 4.096 8.533 8.628 12.045 13.496 12.788-17.638 31.989-30.322 54.161-34.604v-127.664h-89.572c-28.659 0-51.974-23.315-51.974-51.974v-70.773c0-9.161 7.427-16.587 16.587-16.587s16.587 7.427 16.587 16.587v70.773c0 10.366 8.433 18.799 18.799 18.799h4.638c-2.271-5.834-3.532-12.171-3.532-18.799v-141.546c0-9.161 7.427-16.587 16.587-16.587s16.587 7.427 16.587 16.587c0 39.633 32.246 71.879 71.879 71.879s71.879-32.246 71.879-71.879c0-9.161 7.427-16.587 16.587-16.587s16.587 7.427 16.587 16.587v124.959h11.945c10.988 0 21.385 5.321 27.809 14.236s8.188 20.46 4.713 30.886l-27.624 82.871c-2.258 6.774-8.597 11.341-15.736 11.341-32.845 0-53.352-23.908-69.827-43.119-7.575-8.833-13.843-15.866-19.746-20.639v120.648c22.185 4.284 41.398 16.981 54.186 34.637 15.886-21.931 41.683-36.236 70.773-36.236s54.887 14.305 70.773 36.236c0.374-0.515 0.743-1.033 1.128-1.539-0.004-0.139-0.022-0.276-0.022-0.416v-408.052h-354.974c-28.659 0-51.974-23.315-51.974-51.974v-35.362c0-9.161 7.427-16.587 16.587-16.587h920.052c9.161 0 16.587 7.427 16.587 16.587v35.362c0 28.659-23.315 51.974-51.974 51.974h-354.972v408.052c0 0.139-0.018 0.276-0.022 0.416 0.385 0.506 0.754 1.024 1.128 1.539 15.886-21.931 41.683-36.236 70.773-36.236s54.887 14.305 70.773 36.236c12.79-17.656 32.001-30.353 54.186-34.637v-127.664h-89.572c-28.659 0-51.974-23.315-51.974-51.974v-70.773c0-9.161 7.427-16.587 16.587-16.587s16.587 7.427 16.587 16.587v70.773c0 10.366 8.433 18.799 18.799 18.799h4.638c-2.271-5.834-3.532-12.171-3.532-18.799v-141.546c0-9.161 7.427-16.587 16.587-16.587s16.587 7.427 16.587 16.587c0 39.633 32.246 71.879 71.879 71.879s71.879-32.246 71.879-71.879c0-9.161 7.427-16.587 16.587-16.587s16.587 7.427 16.587 16.587v124.959h11.943c10.99 0 21.385 5.323 27.812 14.239 6.425 8.915 8.185 20.46 4.711 30.884l-27.624 82.871c-2.258 6.774-8.597 11.341-15.736 11.341-32.845 0-53.352-23.908-69.827-43.119-7.575-8.833-13.843-15.866-19.746-20.639v120.648c22.172 4.282 41.371 16.966 54.161 34.604 3.512-4.868 7.54-9.4 12.045-13.496 16.11-14.648 37.218-22.696 58.939-22.696 2.773 0 5.558 0.133 8.34 0.396 44.207 4.218 78.835 43.749 78.835 89.999v32.343c0 0.13-0.015 0.257-0.018 0.387zM153.215 553.041h-61.511l215.29 99.956-153.779-99.956zM409.91 680.324l-117.49-127.281h-78.328l195.818 127.281zM474.68 701.583l-45.704-148.54h-91.41l137.114 148.54zM512 710.062l48.314-157.021h-96.628l48.314 157.021zM457.814 501.067v18.799h108.371v-18.799c0-29.877-24.308-54.186-54.186-54.186s-54.186 24.308-54.186 54.186zM595.024 553.041l-45.704 148.54 137.114-148.54h-91.41zM731.583 553.041l-117.492 127.283 195.821-127.283h-78.328zM870.785 553.041l-153.779 99.956 215.29-99.956h-61.511zM666.582 909.118l-24.764-24.764c-6.478-6.478-6.478-16.981 0-23.457l24.764-24.764h-137.995v72.985h137.995zM123.798 460.96c-11.432-10.393-26.281-15.311-41.814-13.821-27.369 2.61-48.809 27.635-48.809 56.972v15.756h108.371v-18.799c0-15.234-6.469-29.853-17.749-40.109zM290.422 293.699c12.724 14.836 22.349 25.268 33.378 29.475l23.154-69.464c0.058-0.175 0.179-0.537-0.153-0.997-0.33-0.46-0.712-0.46-0.896-0.46h-28.533c-9.161 0-16.587-7.427-16.587-16.587v-64.999c-18.806 17.669-44.101 28.506-71.879 28.506s-53.073-10.837-71.879-28.506v64.999c0 10.366 8.433 18.799 18.799 18.799h53.080c27.867 0.002 45.744 20.845 61.515 39.235zM228.907 446.881c-29.877 0-54.186 24.308-54.186 54.186v18.799h108.371v-18.799c0-29.877-24.308-54.186-54.186-54.186zM370.454 446.881c-29.877 0-54.186 24.308-54.186 54.186v18.799h108.371v-18.799c0-29.877-24.308-54.186-54.186-54.186zM955.438-12.039v-18.775h-886.877v18.775c0 10.366 8.433 18.799 18.799 18.799h849.279c10.368 0 18.799-8.433 18.799-18.799zM475.508 39.935v381.788c11.114-5.131 23.47-8.017 36.492-8.017s25.379 2.886 36.492 8.017v-381.788h-72.985zM653.546 446.881c-29.877 0-54.186 24.308-54.186 54.186v18.799h108.371v-18.799c0-29.877-24.308-54.186-54.186-54.186zM856.608 293.699c12.724 14.836 22.349 25.268 33.378 29.475l23.154-69.464c0.058-0.175 0.179-0.537-0.15-0.995-0.332-0.46-0.714-0.46-0.898-0.46h-28.53c-9.161 0-16.587-7.427-16.587-16.587v-64.999c-18.806 17.669-44.101 28.506-71.879 28.506-27.781 0-53.075-10.837-71.879-28.506v64.999c0 10.366 8.433 18.799 18.799 18.799h53.080c27.867 0 45.742 20.843 61.513 39.233zM795.093 446.881c-29.877 0-54.186 24.308-54.186 54.186v18.799h108.371v-18.777c0-0.007 0-0.013 0-0.022 0-29.877-24.308-54.186-54.186-54.186zM990.825 504.112c0-29.338-21.44-54.363-48.809-56.972-15.537-1.488-30.382 3.426-41.814 13.821-11.277 10.253-17.744 24.866-17.749 40.093 0 0.004 0 0.009 0 0.013v18.799h108.371v-15.754z" />
<glyph unicode="&#xe93f;" glyph-name="coffee" horiz-adv-x="1022" d="M887.353 869.492h-49.781l-13.828 67.055c-3.047 14.75-16.188 25.453-31.242 25.453h-562.775c-15.063 0-28.203-10.703-31.242-25.453l-13.836-67.055h-49.781c-21.984 0-39.867-17.883-39.867-39.867v-65.914c0-21.984 17.883-39.875 39.867-39.875h19.563l11.086-77.899c-3.359-1.938-6.422-4.414-9.023-7.406-6.656-7.68-9.656-17.852-8.227-27.922l74.008-519.978c2.039-14.344 12.813-25.719 26.422-29.078l10.531-74.031c4.023-28.234 28.555-49.524 57.070-49.524h389.634c28.516 0 53.047 21.289 57.070 49.524l10.531 74.031c13.609 3.359 24.383 14.734 26.422 29.078l74.008 519.978c1.43 10.070-1.57 20.242-8.227 27.922-2.602 2.992-5.664 5.469-9.031 7.406l11.094 77.899h19.563c21.984 0 39.867 17.891 39.867 39.875v65.914c-0.008 21.984-17.891 39.867-39.875 39.867zM844.228 614.843l-74.008-519.978c-0.352-2.469-2.492-4.32-4.977-4.32h-143.696c-8.289 0-15.008-6.719-15.008-15.016s6.719-15.016 15.008-15.016h121.508l-9.789-68.766c-1.93-13.523-13.68-23.727-27.344-23.727h-389.626c-13.664 0-25.414 10.203-27.344 23.727l-9.781 68.766h272.508c8.297 0 15.016 6.719 15.016 15.016s-6.719 15.016-15.016 15.016h-294.704c-2.484 0-4.625 1.852-4.977 4.32l-74.008 519.978c-0.281 1.977 0.617 3.359 1.18 4.008 0.539 0.617 1.711 1.602 3.539 1.695 0.203 0.008 0.398 0.023 0.609 0.039h655.579c0.203-0.016 0.406-0.031 0.609-0.039 1.828-0.094 3-1.078 3.539-1.695 0.563-0.648 1.461-2.031 1.18-4.008zM184.766 723.835h652.697l-10.422-73.227h-631.853zM897.197 763.711c0-5.43-4.414-9.844-9.844-9.844h-752.486c-5.422 0-9.844 4.414-9.844 9.844v65.914c0 5.43 4.422 9.844 9.844 9.844h134.352c8.289 0 15.008 6.719 15.008 15.016 0 8.289-6.719 15.008-15.008 15.008h-53.906l12.578 60.984c0.18 0.867 0.953 1.5 1.836 1.5h562.775c0.883 0 1.656-0.633 1.836-1.5l12.578-60.984h-467.829c-8.297 0-15.016-6.719-15.016-15.008 0-8.297 6.719-15.016 15.016-15.016h548.267c5.43 0 9.844-4.414 9.844-9.844zM624.048 479.155c-0.102 0.102-0.211 0.195-0.32 0.297-49.906 49.391-140.821 39.141-202.969-23.016-29.703-29.695-48.641-66.813-53.328-104.516-4.867-39.094 6.031-74.195 30.68-98.844 0-0.008 0.008-0.008 0.016-0.016 0.039-0.039 0.078-0.078 0.117-0.109 20.797-20.727 48.992-31.688 80.75-31.688 5.867 0 11.867 0.383 17.953 1.133 37.703 4.688 74.82 23.633 104.524 53.328 62.305 62.313 72.469 153.539 22.648 203.36-0.023 0.031-0.047 0.047-0.070 0.070zM397.227 348.218c3.867 31.102 19.766 61.992 44.758 86.992 29.945 29.945 67.438 45.727 100.961 45.727 15.406 0 29.961-3.352 42.57-10.18-25.211-14.977-64.36-44.438-76.266-88.102-10.359-37.961-66.563-80.016-97.406-99.516-12.563 17.258-17.75 39.914-14.617 65.078zM580.236 296.96c-25-25-55.891-40.891-86.992-44.758-21.969-2.734-42.031 0.867-58.258 10.18 30.961 20.438 90.266 64.828 103.235 112.375 10.586 38.836 52.43 64.985 71.539 75.149 29.719-39.563 17.75-105.664-29.523-152.946z" />
<glyph unicode="&#xe940;" glyph-name="coffee-cup" d="M959.482 102.896h-144.84c-8.286 0-15-6.716-15-15s6.714-15 15-15h129.84v-8.462l-218.412-41.478h-437.817l-218.412 41.478v8.462h59.64c0.024 0 0.048-0.004 0.070-0.004 0.018 0 0.038 0.004 0.056 0.004h54.044c0.018 0 0.034-0.004 0.052-0.004 0.028 0 0.058 0.004 0.086 0.004h179.834c0.010 0 0.020-0.002 0.032-0.002 0.010 0 0.018 0.002 0.028 0.002h53.59c0.016 0 0.032-0.004 0.048-0.004s0.034 0.004 0.050 0.004h179.58c0.018 0 0.034-0.004 0.050-0.004s0.032 0.004 0.046 0.004h161.892c8.286 0 15 6.716 15 15s-6.714 15-15 15h-96.752c17.914 11.384 34.632 24.716 49.662 39.736 21.694 21.704 39.504 46.252 53.116 72.792 18.968-7.726 39.052-11.648 59.874-11.648 87.85 0 159.32 71.48 159.32 159.34 0 87.85-71.47 159.32-159.32 159.32-9.52 0-18.952-0.862-28.22-2.524v8.582c0 19.2-15.62 34.82-34.818 34.82h-70.942c-8.286 0-15-6.716-15-15s6.714-15 15-15h70.942c2.656 0 4.818-2.162 4.818-4.82v-25.5h-518.941v25.5c0 2.658 2.162 4.82 4.82 4.82h382.641c8.286 0 15 6.716 15 15s-6.714 15-15 15h-382.641c-19.2 0-34.82-15.62-34.82-34.82v-181.16c0-22.624 2.646-45.054 7.802-66.84-24.414 7.28-53.506 1.56-80.050-16.602-6.838-4.678-8.59-14.012-3.912-20.85 4.68-6.836 14.016-8.586 20.852-3.91 17.396 11.902 35.652 16.574 50.748 13.55l-54.636-81.744c-4.604-6.888-2.752-16.204 4.134-20.806 2.56-1.712 5.458-2.532 8.322-2.532 4.842 0 9.594 2.34 12.484 6.666l54.652 81.772c5.668-8.414 8.774-19.424 8.92-32.256 0-0.006 0-0.010 0-0.016 0-0.028 0.002-0.056 0.002-0.084 0.202-19.816-6.722-41.25-19.492-60.354-7.28-10.894-15.888-20.236-25.636-27.804-6.758-5.292-13.858-9.526-21.132-12.628h-47.386c-0.542 0.324-1.082 0.65-1.62 1.014-24.974 16.68-26.554 59.818-3.598 98.208 4.252 7.11 1.936 16.322-5.174 20.574-7.106 4.248-16.32 1.936-20.572-5.176-14.634-24.47-21.782-51.734-20.126-76.772 0.94-14.206 4.658-27.008 10.778-37.846h-38.198c-8.286 0-15-6.716-15-15v-35.88c0-7.206 5.124-13.392 12.202-14.736l220.58-41.89v-44.392c0-8.284 6.714-15 15-15h439.057c8.286 0 15 6.716 15 15v44.388l220.6 41.894c7.078 1.344 12.202 7.532 12.202 14.736v35.88c0 8.282-6.716 14.998-15 14.998zM796.618 347.339v70.968h0.002c8.692 4.462 18.304 6.83 28.22 6.83 34.198 0 62.020-27.822 62.020-62.020s-27.822-62.020-62.020-62.020c-10.898 0-21.388 2.83-30.706 8.166 1.636 12.524 2.484 25.234 2.484 38.076zM788.438 278.589c11.404-4.924 23.724-7.494 36.402-7.494 50.74 0 92.020 41.28 92.020 92.020s-41.28 92.020-92.020 92.020c-9.68 0-19.176-1.514-28.22-4.428v37.134c0 0.052 0.008 0.102 0.008 0.154s-0.008 0.102-0.008 0.154v1.178c9.208 2.056 18.66 3.11 28.222 3.11 71.306 0 129.32-58.012 129.32-129.32 0-71.318-58.014-129.34-129.32-129.34-16.538 0-32.48 3.082-47.566 9.076 4.494 11.63 8.212 23.566 11.162 35.736zM247.678 472.995h518.941v-46.172c0-0.016 0-0.034 0-0.050v-79.436c0-69.308-26.986-134.474-75.982-183.49-27.146-27.128-60.394-48.152-96.266-60.95h-174.402c-4.838 1.722-9.652 3.574-14.406 5.6 11.006 17.304 15.2 36.556 11.578 54.904-0.004 0.024-0.006 0.046-0.010 0.070-0.006 0.028-0.016 0.056-0.020 0.084-4.782 23.87-21.648 43.51-47.504 55.306-24.22 11.050-53.822 13.91-83.356 8.046-2.686-0.534-5.348-1.144-7.988-1.814-20.022 37.428-30.584 79.436-30.584 122.242v125.66zM252.45 126.66c13.886 20.776 22.266 44.074 24.138 66.65 5.032 1.696 10.208 3.118 15.51 4.174 38.166 7.576 74.966-3.908 89.64-25.756l-96.4-19.162c-8.126-1.616-13.404-9.51-11.79-17.636 1.42-7.138 7.686-12.078 14.698-12.078 0.968 0 1.954 0.094 2.94 0.292l96.46 19.176c-1.924-9.868-7.424-19.76-16.234-28.848-0.024-0.024-0.046-0.050-0.068-0.074-3.674-3.77-7.828-7.28-12.352-10.498h-126.122c7.19 7.090 13.748 15.032 19.58 23.76zM711.679-34.004h-409.059v26.96h409.059v-26.96zM546.195 660.101c-0.272-0.172-0.494-0.31-0.654-0.412 0.15 0.096 0.37 0.234 0.654 0.412zM545.541 659.691c-0.4-0.252-0.35-0.22 0 0v0zM578.671 796.264c20.2 19.2 31.834 45.806 31.834 74.366 0 35.55-17.996 68.096-48.14 87.064-7.010 4.412-16.276 2.304-20.684-4.708-4.412-7.012-2.304-16.272 4.708-20.684 21.364-13.442 34.118-36.496 34.118-61.67s-12.754-48.228-34.118-61.67c-9.17-5.752-9.17-19.62 0-25.392 21.364-13.442 34.118-36.496 34.118-61.67 0.002-25.176-12.752-48.232-34.116-61.674-0.078-0.048-0.128-0.080-0.196-0.124 0.064 0.040 0.126 0.078 0.196 0.122-7.012-4.412-9.12-13.672-4.708-20.684 2.85-4.532 7.724-7.014 12.708-7.014 2.73 0 5.494 0.746 7.974 2.306 30.144 18.966 48.14 51.514 48.14 87.062 0 28.564-11.636 55.17-31.834 74.37zM554.215 665.149c0.354 0.222 0.398 0.25 0 0v0zM552.261 663.917c0.328 0.208 0.632 0.398 0.906 0.57-0.262-0.164-0.556-0.35-0.906-0.57zM667.929 808.958c-7.010 4.412-16.274 2.306-20.684-4.708-4.412-7.010-2.304-16.272 4.708-20.684 21.362-13.442 34.116-36.498 34.116-61.672 0.002-25.17-12.752-48.226-34.114-61.668-7.012-4.412-9.12-13.672-4.708-20.684 2.85-4.532 7.724-7.014 12.708-7.014 2.73 0 5.494 0.746 7.974 2.306 30.142 18.966 48.138 51.514 48.138 87.062s-17.996 68.096-48.138 87.062zM448.159 808.96c-7.010 4.412-16.276 2.304-20.684-4.708-4.412-7.012-2.304-16.272 4.708-20.684 21.364-13.442 34.118-36.496 34.118-61.67 0.002-25.174-12.752-48.23-34.116-61.672-7.012-4.412-9.12-13.672-4.708-20.684 2.85-4.532 7.724-7.014 12.708-7.014 2.73 0 5.494 0.746 7.974 2.306 30.144 18.966 48.14 51.514 48.14 87.062 0 35.55-17.996 68.096-48.14 87.064z" />
<glyph unicode="&#xe941;" glyph-name="cutlery" d="M909.952 873.888c-7.182 7.176-18.822 7.182-26.006 0l-190.658-190.652c-7.184-7.182-7.184-18.822-0.002-26.006 3.592-3.59 8.296-5.384 13.004-5.384 4.704 0 9.412 1.794 13.004 5.384l190.658 190.652c7.18 7.184 7.18 18.826 0 26.006zM961.8 822.858c-7.184 7.178-18.824 7.178-26.006 0l-190.656-190.656c-7.18-7.184-7.18-18.824-0.002-26.006 3.592-3.59 8.3-5.384 13.004-5.384s9.412 1.794 13.004 5.384l190.656 190.658c7.182 7.182 7.182 18.824 0 26.004zM781.938 500.904l236.676 236.676c7.182 7.184 7.182 18.824 0 26.006-7.184 7.176-18.824 7.182-26.006 0l-236.672-236.676c-29.158-29.156-73.742-36.806-110.94-19.042-7.4 3.532-16.236 1.746-21.678-4.386l-80.418-90.606c-0.032-0.034-0.068-0.064-0.1-0.1s-0.056-0.074-0.088-0.11l-347.578-391.594c-0.088-0.1-0.176-0.202-0.262-0.304-1.146-1.346-2.228-2.528-3.324-3.626-22.95-22.948-60.29-22.946-83.23 0-11.116 11.114-17.238 25.896-17.238 41.616s6.122 30.5 17.258 41.636c1.068 1.074 2.248 2.152 3.606 3.308 0.104 0.086 0.204 0.174 0.304 0.262l217.296 192.868c7.596 6.742 8.286 18.364 1.546 25.958-6.742 7.598-18.366 8.292-25.958 1.546l-217.152-192.74c-2.076-1.77-3.934-3.484-5.666-5.218-18.062-18.062-28.010-42.076-28.010-67.62 0-25.542 9.946-49.558 28.008-67.62 18.646-18.642 43.132-27.964 67.624-27.962 24.482 0 48.974 9.318 67.606 27.952 1.766 1.762 3.476 3.622 5.232 5.678l264.864 298.412 264.868-298.416c1.754-2.058 3.464-3.918 5.218-5.668 18.642-18.642 43.13-27.962 67.618-27.962 24.49 0 48.98 9.322 67.624 27.964 37.28 37.286 37.28 97.95 0.010 135.226-1.76 1.766-3.622 3.476-5.676 5.23l-304.782 270.52 59.63 67.184c48.314-17.118 102.982-5.194 139.79 31.608zM863.028 103.962c0.1-0.088 0.202-0.176 0.304-0.262 1.346-1.146 2.528-2.228 3.626-3.324 22.946-22.948 22.946-60.286 0.002-83.23-22.95-22.946-60.288-22.946-83.244 0.010-1.086 1.086-2.172 2.27-3.318 3.616-0.086 0.102-0.174 0.204-0.262 0.304l-267.914 301.844 45.878 51.69 304.928-270.648zM854.758 927.444c-7.184 7.178-18.824 7.178-26.006 0l-236.672-236.678c-36.812-36.808-48.732-91.47-31.614-139.794l-72.83-64.644-69.996 62.128c36.198 71.224 22.984 157.702-34.444 215.132-57.036 57.036-123.1 97.174-186.022 113.016-65.686 16.534-122.002 5.496-158.59-31.090s-47.628-92.91-31.090-158.592c15.844-62.918 55.98-128.982 113.020-186.016 57.428-57.432 143.904-70.646 215.132-34.446 0 0 68.45-77.116 69.318-78.096 3.634-4.094 8.684-6.18 13.76-6.18 4.342 0 8.698 1.528 12.2 4.636l163.732 145.328c6.13 5.442 7.916 14.282 4.386 21.678-17.768 37.202-10.116 81.782 19.042 110.936l236.674 236.676c7.182 7.184 7.182 18.824 0 26.006zM420.262 426.526l-66.936 75.412c-5.928 6.678-15.804 8.138-23.404 3.444-58.956-36.354-134.376-27.508-183.408 21.526-52.408 52.406-89.114 112.42-103.36 168.994-13.25 52.634-5.638 96.534 21.436 123.606 27.070 27.076 70.97 34.684 123.602 21.432 56.574-14.244 116.592-50.948 168.996-103.356 49.032-49.030 57.88-124.45 21.524-183.406-4.688-7.602-3.234-17.474 3.444-23.404l77.776-69.032-39.67-35.216z" />
<glyph unicode="&#xe942;" glyph-name="destination" d="M251.536 652.195c-138.44 0-251.070-112.63-251.070-251.070 0-85.954 40.888-178.37 121.53-274.683 11.982-14.31 23.922-27.57 35.38-39.668-52.068-14.212-83.33-39.746-83.33-69.548 0-52.758 91.444-81.226 177.482-81.226 86.040 0 177.482 28.47 177.482 81.226 0 29.778-31.252 55.318-83.286 69.536 20.788 21.946 43.156 47.766 64.38 76.566 4.92 6.678 3.496 16.076-3.18 20.996-6.672 4.914-16.076 3.494-20.996-3.182-25.624-34.774-53.36-65.334-77.562-89.608-2.774-1.416-5.094-3.664-6.548-6.498-21.68-21.306-39.924-37.112-50.276-45.748-10.238 8.552-28.204 24.144-49.606 45.172-1.536 3.366-4.234 6.006-7.526 7.478-68.014 68.41-163.914 186.602-163.914 309.183 0 121.88 99.158 221.038 221.038 221.038s221.038-99.158 221.038-221.038c0-53.226-18.136-110.706-53.904-170.844-4.238-7.13-1.898-16.344 5.23-20.582s16.344-1.898 20.582 5.23c38.568 64.848 58.124 127.492 58.124 186.196 0.002 138.444-112.628 251.074-251.068 251.074zM242.346 8.056c2.704-2.094 5.948-3.14 9.19-3.14s6.484 1.046 9.19 3.14c1.842 1.426 26.934 20.994 60.38 53.696 50.644-10.328 77.876-30.214 77.876-44.528 0-10.69-14.652-23.302-38.238-32.912-28.928-11.79-67.714-18.284-109.214-18.284-90.012 0-147.452 30.324-147.452 51.196 0 14.334 27.24 34.21 77.912 44.538 33.632-32.896 58.76-52.47 60.356-53.706zM251.536 510.291c-23.75 0-46.334-7.498-65.31-21.684-6.64-4.966-8-14.376-3.036-21.018 4.968-6.64 14.378-7.998 21.018-3.036 13.742 10.274 30.108 15.706 47.326 15.706 43.634 0 79.132-35.498 79.132-79.134 0-43.634-35.498-79.132-79.132-79.132s-79.132 35.5-79.132 79.132c0 7.446 1.030 14.808 3.060 21.876 2.288 7.97-2.318 16.286-10.288 18.576-7.968 2.28-16.286-2.32-18.576-10.29-2.802-9.766-4.224-19.912-4.224-30.162 0-60.192 48.97-109.164 109.164-109.164 60.192 0 109.164 48.97 109.164 109.164-0.002 60.194-48.974 109.166-109.166 109.166zM905.918 523.757c7.64 8.198 15.51 17.030 23.402 26.458 62.516 74.666 94.214 146.444 94.214 213.346 0 108.314-88.122 196.438-196.438 196.438-79.126 0-150.172-47.092-180.994-119.972-3.232-7.638 0.342-16.45 7.978-19.678s16.45 0.342 19.678 7.978c26.116 61.744 86.304 101.642 153.338 101.642 91.758 0 166.408-74.652 166.408-166.41 0-124.086-130.276-242.968-166.414-273.551-7.964 6.73-20.5 17.746-35.198 32.154-1.466 2.906-3.834 5.21-6.678 6.636-51.846 52.202-124.526 141.936-124.526 234.76 0 8.294-6.72 15.016-15.016 15.016-8.292 0-15.016-6.722-15.016-15.016 0-66.9 31.698-138.678 94.216-213.346 7.89-9.422 15.754-18.25 23.39-26.446-38.708-11.63-61.054-31.426-61.054-55.264 0-20.104 16.308-37.822 45.924-49.888 25.34-10.326 58.71-16.014 93.962-16.014 35.25 0 68.62 5.688 93.962 16.014 29.61 12.068 45.918 29.786 45.918 49.89-0.002 23.794-22.364 43.608-61.056 55.252zM827.092 432.635c-71.078 0-109.852 23.696-109.852 35.872 0 7.932 17.638 22.448 55.302 30.456 25.342-24.658 44.152-39.31 45.366-40.252 2.706-2.094 5.948-3.14 9.19-3.14s6.482 1.046 9.19 3.14c1.214 0.938 20.020 15.592 45.362 40.248 16.78-3.578 31.316-8.82 41.488-15.012 8.646-5.268 13.808-11.040 13.808-15.44-0.004-12.176-38.778-35.872-109.854-35.872zM827.096 850.936c-48.178 0-87.376-39.196-87.376-87.378 0-48.178 39.196-87.374 87.376-87.374s87.376 39.194 87.376 87.374c0 48.18-39.196 87.378-87.376 87.378zM827.098 706.216c-31.624 0-57.346 25.724-57.346 57.344s25.724 57.346 57.346 57.346c31.62 0 57.346-25.724 57.346-57.346-0.002-31.62-25.726-57.344-57.346-57.344zM632.315 483.521h-6.856c-4.992 0-10.008-0.33-14.916-0.984-8.218-1.094-13.996-8.642-12.904-16.866 1.006-7.55 7.454-13.038 14.866-13.038 0.66 0 1.328 0.042 2 0.132 3.598 0.478 7.284 0.72 10.956 0.72l6.854 0.002c8.294 0 15.016 6.72 15.016 15.016s-6.722 15.018-15.016 15.018zM582.673 33.006c-0.024 0-0.046 0-0.070 0l-19.832-0.090c-8.292-0.038-14.984-6.792-14.948-15.084 0.036-8.27 6.754-14.948 15.014-14.948 0.024 0 0.046 0 0.070 0l19.832 0.090c8.292 0.038 14.984 6.792 14.948 15.084-0.036 8.272-6.752 14.948-15.014 14.948zM650.133 289.021h-19.832c-8.294 0-15.016-6.724-15.016-15.016 0-8.294 6.72-15.016 15.016-15.016h19.832c8.294 0 15.016 6.72 15.016 15.016 0 8.292-6.72 15.016-15.016 15.016zM570.569 452.927c-5.622 6.092-15.118 6.476-21.218 0.856-5.598-5.162-10.69-10.916-15.134-17.104-4.838-6.738-3.298-16.12 3.438-20.958 2.65-1.904 5.714-2.82 8.748-2.82 4.67 0 9.274 2.174 12.208 6.258 3.26 4.538 6.996 8.762 11.102 12.55 6.096 5.622 6.478 15.122 0.856 21.218zM662.005 33.37c-0.024 0-0.046 0-0.070 0l-19.83-0.090c-8.292-0.036-14.984-6.792-14.948-15.084 0.036-8.27 6.754-14.948 15.014-14.948 0.024 0 0.046 0 0.070 0l19.83 0.090c8.292 0.036 14.984 6.792 14.948 15.084-0.038 8.27-6.754 14.948-15.014 14.948zM503.343 32.648c-0.024 0-0.046 0-0.070 0l-19.832-0.090c-8.292-0.038-14.984-6.792-14.948-15.084 0.038-8.27 6.75-14.948 15.014-14.948 0.024 0 0.046 0 0.070 0l19.832 0.090c8.292 0.038 14.984 6.792 14.948 15.084-0.036 8.272-6.752 14.948-15.014 14.948zM581.659 301.643c-4.718 2.976-9.156 6.452-13.186 10.326-5.978 5.75-15.486 5.56-21.232-0.412-5.75-5.976-5.564-15.482 0.412-21.23 5.496-5.286 11.546-10.024 17.982-14.084 2.488-1.57 5.258-2.318 7.998-2.318 4.984 0 9.858 2.478 12.716 7.008 4.426 7.012 2.324 16.286-4.69 20.71zM544.747 355.425c-1.008 5.176-1.52 10.5-1.52 15.828l0.004 0.834c0.098 8.292-6.546 15.092-14.84 15.188-0.058 0.002-0.118 0.002-0.178 0.002-8.212 0-14.916-6.608-15.012-14.842l-0.006-1.184c0-7.252 0.698-14.51 2.074-21.572 1.396-7.17 7.68-12.144 14.722-12.144 0.95 0 1.918 0.090 2.886 0.28 8.142 1.586 13.454 9.47 11.87 17.61zM729.467 289.021h-19.832c-8.294 0-15.016-6.724-15.016-15.016 0-8.294 6.722-15.016 15.016-15.016h19.832c8.294 0 15.016 6.72 15.016 15.016 0 8.292-6.722 15.016-15.016 15.016zM970.55 258.449c-5.786 4.566-11.97 8.714-18.384 12.324-7.218 4.072-16.38 1.514-20.452-5.712-4.070-7.224-1.514-16.384 5.712-20.452 5.060-2.854 9.944-6.126 14.51-9.732 2.76-2.178 6.036-3.232 9.296-3.232 4.436 0 8.832 1.96 11.796 5.712 5.14 6.51 4.032 15.954-2.478 21.092zM914.812 22.61c-1.14 8.214-8.732 13.964-16.93 12.82-4.918-0.68-9.954-1.038-14.976-1.058l-2.81-0.014c-8.294-0.042-14.984-6.798-14.944-15.088 0.042-8.268 6.756-14.944 15.014-14.944 0.026 0 0.050 0 0.074 0l2.804 0.014c6.342 0.028 12.718 0.478 18.948 1.34 8.218 1.136 13.956 8.718 12.82 16.93zM981.082 64.836c-5.722 6.008-15.228 6.238-21.228 0.516-4.214-4.014-8.774-7.73-13.556-11.046-6.814-4.724-8.508-14.080-3.786-20.898 2.918-4.206 7.596-6.462 12.354-6.462 2.952 0 5.932 0.868 8.542 2.676 6.052 4.198 11.826 8.902 17.16 13.984 6.006 5.722 6.234 15.228 0.514 21.23zM1010.306 137.762c-8.138 1.534-15.998-3.826-17.534-11.976-1.078-5.714-2.61-11.384-4.56-16.856-2.784-7.81 1.29-16.4 9.102-19.186 1.666-0.594 3.37-0.876 5.044-0.876 6.168 0 11.952 3.832 14.144 9.976 2.474 6.94 4.42 14.134 5.786 21.384 1.53 8.15-3.834 16.002-11.982 17.534zM1019.226 186.030c-2.036 7.090-4.648 14.074-7.772 20.768-3.508 7.516-12.436 10.764-19.958 7.26-7.514-3.508-10.764-12.442-7.258-19.958 2.46-5.27 4.52-10.774 6.122-16.354 1.89-6.586 7.898-10.878 14.426-10.878 1.374 0 2.766 0.19 4.15 0.586 7.97 2.29 12.576 10.606 10.29 18.576zM808.8 289.021h-19.832c-8.294 0-15.016-6.724-15.016-15.016 0-8.294 6.72-15.016 15.016-15.016h19.832c8.294 0 15.016 6.72 15.016 15.016 0 8.292-6.722 15.016-15.016 15.016zM741.337 33.73c-0.024 0-0.046 0-0.070 0l-19.832-0.090c-8.292-0.036-14.984-6.792-14.948-15.084 0.038-8.27 6.754-14.948 15.014-14.948 0.024 0 0.046 0 0.070 0l19.832 0.090c8.292 0.038 14.984 6.792 14.948 15.084-0.036 8.27-6.754 14.948-15.014 14.948zM888.792 288.877c-2.124 0.096-4.276 0.142-6.392 0.142h-14.102c-8.294 0-15.016-6.724-15.016-15.016 0-8.294 6.72-15.016 15.016-15.016l14.102 0.002c1.698 0 3.386-0.038 5.064-0.112 0.226-0.012 0.452-0.016 0.676-0.016 7.986 0 14.634 6.292 14.988 14.35 0.366 8.288-6.052 15.3-14.336 15.666zM820.668 34.088c-0.024 0-0.046 0-0.070 0l-19.832-0.090c-8.292-0.036-14.984-6.792-14.948-15.084 0.038-8.27 6.754-14.948 15.014-14.948 0.024 0 0.048 0 0.070 0l19.832 0.090c8.292 0.038 14.984 6.792 14.948 15.084-0.036 8.272-6.752 14.948-15.014 14.948z" />
</font>
</defs>
</svg>
